<svg xmlns="http://www.w3.org/2000/svg" xmlns:xlink="http://www.w3.org/1999/xlink" xmlns:lucid="lucid" width="1760" height="1360"><g transform="translate(0 0)" lucid:page-tab-id="0_0"><path d="M0 0h1760v1360H0z" fill="#fff"/><path d="M453.15 76c0-4.42 3.58-8 8-8h836.75c4.4 0 8 3.58 8 8v25.16c0 4.4-3.6 8-8 8H461.15c-4.42 0-8-3.6-8-8z" stroke="#000" stroke-opacity="0" stroke-width="2" fill="#fff" fill-opacity="0"/><use xlink:href="#a" transform="matrix(1,0,0,1,457.1465527853429,71.99999999994924) translate(327.73160493827163 25.782777777777778)"/><use xlink:href="#b" transform="matrix(1,0,0,1,457.1465527853429,71.99999999994924) translate(428.03160493827164 25.782777777777778)"/><path d="M628.64 107.8h505.86M628.66 107.8h-1.02M1134.47 107.8h1.03" stroke="#a9afb8" stroke-width="2" fill="none"/><path d="M453.15 117.16c0-4.42 3.58-8 8-8h837.7c4.42 0 8 3.58 8 8V120c0 4.42-3.58 8-8 8h-837.7c-4.42 0-8-3.58-8-8z" stroke="#000" stroke-opacity="0" stroke-width="2" fill="#fff" fill-opacity="0"/><use xlink:href="#c" transform="matrix(1,0,0,1,457.1465527853434,113.15522395684805) translate(310.9716769547325 14.917037037037037)"/><use xlink:href="#d" transform="matrix(1,0,0,1,457.1465527853434,113.15522395684805) translate(344.92095679012345 14.917037037037037)"/><use xlink:href="#e" transform="matrix(1,0,0,1,457.1465527853434,113.15522395684805) translate(390.7673559670782 14.917037037037037)"/><use xlink:href="#f" transform="matrix(1,0,0,1,457.1465527853434,113.15522395684805) translate(403.21684156378603 14.917037037037037)"/><use xlink:href="#g" transform="matrix(1,0,0,1,457.1465527853434,113.15522395684805) translate(482.16272633744853 14.917037037037037)"/><use xlink:href="#h" transform="matrix(1,0,0,1,457.1465527853434,113.15522395684805) translate(507.65655349794235 14.917037037037037)"/><path d="M80 100h220v33H80z" fill="#fff"/><path d="M80 132h220v33H80z" fill="#e6e6e6"/><path d="M80 164h220v33H80z" fill="#fff"/><path d="M80 196h220v33H80z" fill="#e6e6e6"/><path d="M80 228h220v33H80z" fill="#fff"/><path d="M80 260h220v33H80z" fill="#e6e6e6"/><path d="M80 292h220v33H80z" fill="#fff"/><path d="M80 324h220v32H80z" fill="#e6e6e6"/><path d="M80 60h220v40H80z" fill="#ccc"/><path d="M80 68c0-4.42 3.58-8 8-8h204c4.42 0 8 3.58 8 8v280c0 4.42-3.58 8-8 8H88c-4.42 0-8-3.58-8-8zM80 100h220M140 100v256" stroke="#333" fill="none"/><use xlink:href="#i" transform="matrix(1,0,0,1,90,60) translate(78.5 23.6)"/><use xlink:href="#j" transform="matrix(1,0,0,1,85,102.5) translate(13 17.1)"/><use xlink:href="#k" transform="matrix(1,0,0,1,145,102.5) translate(29.049999999999997 17.1)"/><use xlink:href="#l" transform="matrix(1,0,0,1,145,134.5) translate(30.549999999999997 17.1)"/><use xlink:href="#m" transform="matrix(1,0,0,1,145,166.5) translate(35.025 17.1)"/><use xlink:href="#n" transform="matrix(1,0,0,1,145,198.5) translate(34.05 17.1)"/><use xlink:href="#o" transform="matrix(1,0,0,1,145,230.5) translate(28.65 17.1)"/><use xlink:href="#p" transform="matrix(1,0,0,1,145,262.5) translate(15.574999999999996 17.1)"/><use xlink:href="#q" transform="matrix(1,0,0,1,145,294.5) translate(25.65 17.1)"/><use xlink:href="#r" transform="matrix(1,0,0,1,145,326.5) translate(42.099999999999994 17.1)"/><path d="M480 453.8h235.36v33H480z" fill="#fff"/><path d="M480 485.8h235.36v33H480z" fill="#e6e6e6"/><path d="M480 517.8h235.36v33H480z" fill="#fff"/><path d="M480 549.8h235.36v33H480z" fill="#e6e6e6"/><path d="M480 581.8h235.36v33H480z" fill="#fff"/><path d="M480 613.8h235.36v36H480z" fill="#e6e6e6"/><path d="M480 413.8h235.36v40H480z" fill="#ccc"/><path d="M480 421.8c0-4.4 3.58-8 8-8h219.36c4.4 0 8 3.6 8 8v220c0 4.43-3.6 8-8 8H488c-4.42 0-8-3.57-8-8zM480 453.8h235.36M540 453.8v196" stroke="#333" fill="none"/><use xlink:href="#s" transform="matrix(1,0,0,1,490,413.81147616336466) translate(81.55 23.6)"/><use xlink:href="#j" transform="matrix(1,0,0,1,485,456.31147616336466) translate(13 17.1)"/><use xlink:href="#t" transform="matrix(1,0,0,1,545,456.31147616336466) translate(47.074999999999996 17.1)"/><use xlink:href="#u" transform="matrix(1,0,0,1,545,488.31147616336466) translate(32.099999999999994 17.1)"/><use xlink:href="#v" transform="matrix(1,0,0,1,545,520.3114761633647) translate(5.125 17.1)"/><use xlink:href="#w" transform="matrix(1,0,0,1,485,552.3114761633647) translate(13.524999999999999 17.1)"/><use xlink:href="#x" transform="matrix(1,0,0,1,545,552.3114761633647) translate(43.05 17.1)"/><use xlink:href="#w" transform="matrix(1,0,0,1,485,584.3114761633647) translate(13.524999999999999 17.1)"/><use xlink:href="#y" transform="matrix(1,0,0,1,545,584.3114761633647) translate(43.574999999999996 17.1)"/><use xlink:href="#w" transform="matrix(1,0,0,1,485,616.3114761633647) translate(13.524999999999999 19.1)"/><use xlink:href="#z" transform="matrix(1,0,0,1,545,616.3114761633647) translate(36.86666666666666 19.766666666666666)"/><path d="M816.57 988h240v33h-240z" fill="#fff"/><path d="M816.57 1020h240v33h-240z" fill="#e6e6e6"/><path d="M816.57 1052h240v33h-240z" fill="#fff"/><path d="M816.57 1084h240v33h-240z" fill="#e6e6e6"/><path d="M816.57 1116h240v33h-240z" fill="#fff"/><path d="M816.57 1148h240v32h-240z" fill="#e6e6e6"/><path d="M816.57 948h240v40h-240z" fill="#ccc"/><path d="M816.57 956c0-4.42 3.58-8 8-8h224c4.42 0 8 3.58 8 8v216c0 4.42-3.58 8-8 8h-224c-4.42 0-8-3.58-8-8zM816.57 988h240M876.57 988v192" stroke="#333" fill="none"/><use xlink:href="#A" transform="matrix(1,0,0,1,826.5732763926715,948) translate(81.025 23.6)"/><use xlink:href="#j" transform="matrix(1,0,0,1,821.5732763926715,990.5) translate(13 17.1)"/><use xlink:href="#B" transform="matrix(1,0,0,1,881.5732763926715,990.5) translate(46.55 17.1)"/><use xlink:href="#C" transform="matrix(1,0,0,1,881.5732763926715,1022.5) translate(36.55 17.1)"/><use xlink:href="#D" transform="matrix(1,0,0,1,881.5732763926715,1054.5) translate(35.925 17.1)"/><use xlink:href="#w" transform="matrix(1,0,0,1,821.5732763926715,1086.5) translate(13.524999999999999 17.1)"/><use xlink:href="#t" transform="matrix(1,0,0,1,881.5732763926715,1086.5) translate(49.074999999999996 17.1)"/><use xlink:href="#w" transform="matrix(1,0,0,1,821.5732763926715,1118.5) translate(13.524999999999999 17.1)"/><use xlink:href="#E" transform="matrix(1,0,0,1,881.5732763926715,1118.5) translate(14.150000000000006 17.1)"/><use xlink:href="#w" transform="matrix(1,0,0,1,821.5732763926715,1150.5) translate(13.524999999999999 17.1)"/><use xlink:href="#F" transform="matrix(1,0,0,1,881.5732763926715,1150.5) translate(9.550000000000011 17.1)"/><path d="M1180 800h240v33h-240z" fill="#fff"/><path d="M1180 832h240v33h-240z" fill="#e6e6e6"/><path d="M1180 864h240v32h-240z" fill="#fff"/><path d="M1180 760h240v40h-240z" fill="#ccc"/><path d="M1180 768c0-4.42 3.58-8 8-8h224c4.42 0 8 3.58 8 8v120c0 4.42-3.58 8-8 8h-224c-4.42 0-8-3.58-8-8zM1180 800h240M1240 800v96" stroke="#333" fill="none"/><use xlink:href="#G" transform="matrix(1,0,0,1,1190,760) translate(58.074999999999996 23.6)"/><use xlink:href="#j" transform="matrix(1,0,0,1,1185,802.5) translate(13 17.1)"/><use xlink:href="#H" transform="matrix(1,0,0,1,1245,802.5) translate(39.074999999999996 17.1)"/><use xlink:href="#w" transform="matrix(1,0,0,1,1185,834.5) translate(13.524999999999999 17.1)"/><use xlink:href="#I" transform="matrix(1,0,0,1,1245,834.5) translate(0.09999999999999432 17.1)"/><use xlink:href="#w" transform="matrix(1,0,0,1,1185,866.5) translate(13.524999999999999 17.1)"/><use xlink:href="#B" transform="matrix(1,0,0,1,1245,866.5) translate(46.55 17.1)"/><path d="M860 200h220v33H860z" fill="#fff"/><path d="M860 232h220v33H860z" fill="#e6e6e6"/><path d="M860 264h220v33H860z" fill="#fff"/><path d="M860 296h220v32H860z" fill="#e6e6e6"/><path d="M860 160h220v40H860z" fill="#ccc"/><path d="M860 168c0-4.42 3.58-8 8-8h204c4.42 0 8 3.58 8 8v152c0 4.42-3.58 8-8 8H868c-4.42 0-8-3.58-8-8zM860 200h220M920 200v128" stroke="#333" fill="none"/><use xlink:href="#J" transform="matrix(1,0,0,1,870,160) translate(70.05 23.6)"/><use xlink:href="#j" transform="matrix(1,0,0,1,865,202.5) translate(13 17.1)"/><use xlink:href="#y" transform="matrix(1,0,0,1,925,202.5) translate(35.574999999999996 17.1)"/><use xlink:href="#K" transform="matrix(1,0,0,1,925,234.5) translate(3.125 17.1)"/><use xlink:href="#L" transform="matrix(1,0,0,1,925,266.5) translate(26.099999999999994 17.1)"/><use xlink:href="#w" transform="matrix(1,0,0,1,865,298.5) translate(13.524999999999999 17.1)"/><use xlink:href="#M" transform="matrix(1,0,0,1,925,298.5) translate(36.074999999999996 17.1)"/><path d="M1220 460h200v33h-200z" fill="#fff"/><path d="M1220 492h200v33h-200z" fill="#e6e6e6"/><path d="M1220 524h200v33h-200z" fill="#fff"/><path d="M1220 556h200v32h-200z" fill="#e6e6e6"/><path d="M1220 420h200v40h-200z" fill="#ccc"/><path d="M1220 428c0-4.42 3.58-8 8-8h184c4.42 0 8 3.58 8 8v152c0 4.42-3.58 8-8 8h-184c-4.42 0-8-3.58-8-8zM1220 460h200M1280 460v128" stroke="#333" fill="none"/><use xlink:href="#N" transform="matrix(1,0,0,1,1230,420) translate(56.025 23.6)"/><use xlink:href="#j" transform="matrix(1,0,0,1,1225,462.5) translate(13 17.1)"/><use xlink:href="#O" transform="matrix(1,0,0,1,1285,462.5) translate(17.049999999999997 17.1)"/><use xlink:href="#P" transform="matrix(1,0,0,1,1285,494.5) translate(5.024999999999999 17.1)"/><use xlink:href="#Q" transform="matrix(1,0,0,1,1285,526.5) translate(10.574999999999996 17.1)"/><use xlink:href="#R" transform="matrix(1,0,0,1,1285,558.5) translate(2.049999999999997 17.1)"/><path d="M200 952h200v33H200z" fill="#fff"/><path d="M200 984h200v33H200z" fill="#e6e6e6"/><path d="M200 1016h200v33H200z" fill="#fff"/><path d="M200 1048h200v32H200z" fill="#e6e6e6"/><path d="M200 912h200v40H200z" fill="#ccc"/><path d="M200 920c0-4.42 3.58-8 8-8h184c4.42 0 8 3.58 8 8v152c0 4.42-3.58 8-8 8H208c-4.42 0-8-3.58-8-8zM200 952h200M260 952v128" stroke="#333" fill="none"/><use xlink:href="#S" transform="matrix(1,0,0,1,210,912) translate(45.55 23.6)"/><use xlink:href="#j" transform="matrix(1,0,0,1,205,954.5) translate(13 17.1)"/><use xlink:href="#T" transform="matrix(1,0,0,1,265,954.5) translate(32.55 17.1)"/><use xlink:href="#U" transform="matrix(1,0,0,1,265,986.5) translate(22.099999999999994 17.1)"/><use xlink:href="#V" transform="matrix(1,0,0,1,265,1018.5) translate(12.099999999999994 17.1)"/><use xlink:href="#W" transform="matrix(1,0,0,1,265,1050.5) translate(12.574999999999996 17.1)"/><path d="M500 200h220v33H500z" fill="#fff"/><path d="M500 232h220v33H500z" fill="#e6e6e6"/><path d="M500 264h220v33H500z" fill="#fff"/><path d="M500 296h220v32H500z" fill="#e6e6e6"/><path d="M500 160h220v40H500z" fill="#ccc"/><path d="M500 168c0-4.42 3.58-8 8-8h204c4.42 0 8 3.58 8 8v152c0 4.42-3.58 8-8 8H508c-4.42 0-8-3.58-8-8zM500 200h220M560 200v128" stroke="#333" fill="none"/><use xlink:href="#X" transform="matrix(1,0,0,1,510,160) translate(66.55 23.6)"/><use xlink:href="#j" transform="matrix(1,0,0,1,505,202.5) translate(13 17.1)"/><use xlink:href="#Y" transform="matrix(1,0,0,1,565,202.5) translate(32.074999999999996 17.1)"/><use xlink:href="#Z" transform="matrix(1,0,0,1,565,234.5) translate(55.05 17.1)"/><use xlink:href="#aa" transform="matrix(1,0,0,1,565,266.5) translate(46.5 17.1)"/><use xlink:href="#ab" transform="matrix(1,0,0,1,565,298.5) translate(58.375 17.1)"/><path d="M836.57 520h220v33h-220z" fill="#fff"/><path d="M836.57 552h220v33h-220z" fill="#e6e6e6"/><path d="M836.57 584h220v33h-220z" fill="#fff"/><path d="M836.57 616h220v33h-220z" fill="#e6e6e6"/><path d="M836.57 648h220v32h-220z" fill="#fff"/><path d="M836.57 480h220v40h-220z" fill="#ccc"/><path d="M836.57 488c0-4.42 3.58-8 8-8h204c4.42 0 8 3.58 8 8v184c0 4.42-3.58 8-8 8h-204c-4.42 0-8-3.58-8-8zM836.57 520h220M896.57 520v160" stroke="#333" fill="none"/><use xlink:href="#ac" transform="matrix(1,0,0,1,846.5732763926715,480) translate(48.574999999999996 23.6)"/><use xlink:href="#j" transform="matrix(1,0,0,1,841.5732763926715,522.5) translate(13 17.1)"/><use xlink:href="#M" transform="matrix(1,0,0,1,901.5732763926715,522.5) translate(36.074999999999996 17.1)"/><use xlink:href="#ad" transform="matrix(1,0,0,1,901.5732763926715,554.5) translate(9.149999999999991 17.1)"/><use xlink:href="#ae" transform="matrix(1,0,0,1,901.5732763926715,586.5) translate(26.574999999999996 17.1)"/><use xlink:href="#w" transform="matrix(1,0,0,1,841.5732763926715,618.5) translate(13.524999999999999 17.1)"/><use xlink:href="#af" transform="matrix(1,0,0,1,901.5732763926715,618.5) translate(9.125 17.1)"/><use xlink:href="#w" transform="matrix(1,0,0,1,841.5732763926715,650.5) translate(13.524999999999999 17.1)"/><use xlink:href="#ag" transform="matrix(1,0,0,1,901.5732763926715,650.5) translate(5.625 17.1)"/><path d="M480 920h200v33H480z" fill="#fff"/><path d="M480 952h200v33H480z" fill="#e6e6e6"/><path d="M480 984h200v33H480z" fill="#fff"/><path d="M480 1016h200v33H480z" fill="#e6e6e6"/><path d="M480 1048h200v32H480z" fill="#fff"/><path d="M480 880h200v40H480z" fill="#ccc"/><path d="M480 888c0-4.42 3.58-8 8-8h184c4.42 0 8 3.58 8 8v184c0 4.42-3.58 8-8 8H488c-4.42 0-8-3.58-8-8zM480 920h200M540 920v160" stroke="#333" fill="none"/><use xlink:href="#ah" transform="matrix(1,0,0,1,490,880) translate(37.625 24.266666666666666)"/><use xlink:href="#j" transform="matrix(1,0,0,1,485,922.5) translate(13 17.1)"/><use xlink:href="#ai" transform="matrix(1,0,0,1,545,922.5) translate(2.125 17.1)"/><use xlink:href="#w" transform="matrix(1,0,0,1,485,954.5) translate(13.524999999999999 17.1)"/><use xlink:href="#T" transform="matrix(1,0,0,1,545,954.5) translate(32.55 17.1)"/><use xlink:href="#aj" transform="matrix(1,0,0,1,545,986.5) translate(38.55 17.1)"/><use xlink:href="#ak" transform="matrix(1,0,0,1,545,1018.5) translate(28.549999999999997 17.1)"/><use xlink:href="#al" transform="matrix(1,0,0,1,545,1050.5) translate(1.125 17.1)"/><path d="M80 500h240v33H80z" fill="#fff"/><path d="M80 532h240v33H80z" fill="#e6e6e6"/><path d="M80 564h240v32H80z" fill="#fff"/><path d="M80 460h240v40H80z" fill="#ccc"/><path d="M80 468c0-4.42 3.58-8 8-8h224c4.42 0 8 3.58 8 8v120c0 4.42-3.58 8-8 8H88c-4.42 0-8-3.58-8-8zM80 500h240M140 500v96" stroke="#333" fill="none"/><use xlink:href="#am" transform="matrix(1,0,0,1,90,460) translate(48.525 23.6)"/><use xlink:href="#j" transform="matrix(1,0,0,1,85,502.5) translate(13 17.1)"/><use xlink:href="#F" transform="matrix(1,0,0,1,145,502.5) translate(9.550000000000011 17.1)"/><use xlink:href="#w" transform="matrix(1,0,0,1,85,534.5) translate(13.524999999999999 17.1)"/><use xlink:href="#t" transform="matrix(1,0,0,1,145,534.5) translate(49.074999999999996 17.1)"/><use xlink:href="#w" transform="matrix(1,0,0,1,85,566.5) translate(13.524999999999999 17.1)"/><use xlink:href="#an" transform="matrix(1,0,0,1,145,566.5) translate(54.025 17.1)"/><path d="M479.5 215.87h-28c-6.63 0-12 5.38-12 12v326.1c0 6.6 5.37 12 12 12h8" stroke="#333" fill="none"/><path d="M489.5 205.87v20M499.5 215.87h-20M479.5 205.87v20M469.5 555.96v20M479.5 565.96h-20M459.5 555.96v20" stroke="#333" fill="#fff"/><path d="M735.86 598.1h39.82c6.63 0 12-5.38 12-12V228c0-6.63 5.37-12 12-12h39.82" stroke="#333" fill="none"/><path d="M725.86 608.1v-20M715.86 598.1h20M735.86 608.1v-20" stroke="#333" fill="#fff"/><path d="M859.28 226l-20-10 20-10" stroke="#333" fill="#fff" fill-opacity="0"/><path d="M859.28 216h-20M839.28 206v20" stroke="#333" fill="#fff"/><path d="M735.86 632.24h60.7" stroke="#333" fill="none"/><path d="M725.86 642.24v-20M715.86 632.24h20M735.86 642.24v-20" stroke="#333" fill="#fff"/><path d="M835.85 642.24l-20-10 20-10" stroke="#333" fill="#fff" fill-opacity="0"/><path d="M835.85 632.24h-20M815.85 632.24c0 5.52-4.48 10-10 10s-10-4.48-10-10c0-5.53 4.48-10 10-10s10 4.47 10 10" stroke="#333" fill="#fff"/><path d="M1100.5 312.3h8c6.63 0 12 5.38 12 12V652.4c0 6.63-5.37 12-12 12h-11.93" stroke="#333" fill="none"/><path d="M1090.5 322.3v-20M1080.5 312.3h20M1100.5 322.3v-20" stroke="#333" fill="#fff"/><path d="M1057.3 654.38l20 10-20 10" stroke="#333" fill="#fff" fill-opacity="0"/><path d="M1057.3 664.38h20M1097.3 664.38c0 5.52-4.48 10-10 10-5.53 0-10-4.48-10-10s4.47-10 10-10c5.52 0 10 4.48 10 10" stroke="#333" fill="#fff"/><path d="M1460 848c.28 0 .5-.22.5-.5V686c0-6.63-5.37-12-12-12h-257c-6.63 0-12-5.37-12-12V487.86c0-6.63 5.37-12 12-12h8" stroke="#333" fill="none"/><path d="M1420.72 838l20 10-20 10" stroke="#333" fill="#fff" fill-opacity="0"/><path d="M1420.72 848h20M1460.72 848c0 5.52-4.47 10-10 10-5.52 0-10-4.48-10-10s4.48-10 10-10c5.53 0 10 4.48 10 10M1209.5 465.86v20M1219.5 475.86h-20M1199.5 465.86v20" stroke="#333" fill="#fff"/><path d="M459.5 967.94h-19.46c-.02 0-.04-.02-.04-.04s-.02-.04-.04-.04H420.5" stroke="#333" fill="none"/><path d="M479.28 977.94l-20-10 20-10" stroke="#333" fill="#fff" fill-opacity="0"/><path d="M479.28 967.94h-20M459.28 957.94v20M410.5 977.86v-20M400.5 967.86h20M420.5 977.86v-20" stroke="#333" fill="#fff"/><path d="M1159.5 880.22h-29.2c-6.64 0-12 5.37-12 12v99.53c0 6.63-5.4 12-12 12h-29.23" stroke="#333" fill="none"/><path d="M1169.5 870.22v20M1179.5 880.22h-20M1159.5 870.22v20" stroke="#333" fill="#fff"/><path d="M1057.3 993.75l20 10-20 10" stroke="#333" fill="#fff" fill-opacity="0"/><path d="M1057.3 1003.75h20M1077.3 1013.75v-20" stroke="#333" fill="#fff"/><path d="M776.57 1132.28H760.3c-6.64 0-12-5.37-12-12v-172.5c0-6.63-5.4-12-12-12h-35.8" stroke="#333" fill="none"/><path d="M815.85 1142.28l-20-10 20-10" stroke="#333" fill="#fff" fill-opacity="0"/><path d="M815.85 1132.28h-20M795.85 1132.28c0 5.53-4.48 10-10 10s-10-4.47-10-10c0-5.52 4.48-10 10-10s10 4.48 10 10M690.5 945.78v-20M680.5 935.78h20M700.5 945.78v-20" stroke="#333" fill="#fff"/><path d="M796.07 1164.42H51.5c-6.63 0-12-5.38-12-12V528c0-6.63 5.37-12 12-12h8" stroke="#333" fill="none"/><path d="M806.07 1154.42v20M816.07 1164.42h-20M796.07 1154.42v20" stroke="#333" fill="#fff"/><path d="M79.28 526l-20-10 20-10" stroke="#333" fill="#fff" fill-opacity="0"/><path d="M79.28 516h-20M59.28 506v20" stroke="#333" fill="#fff"/><path d="M59.5 580H22c-6.63 0-12-5.37-12-12V127.58c0-6.63 5.37-12 12-12h37.5" stroke="#333" fill="none"/><path d="M79.28 590l-20-10 20-10" stroke="#333" fill="#fff" fill-opacity="0"/><path d="M79.28 580h-20M59.28 570v20M69.5 105.58v20M79.5 115.58h-20M59.5 105.58v20" stroke="#333" fill="#fff"/><path d="M340.5 548.08H388c6.63 0 12-5.37 12-12v-54.53c0-6.63 5.37-12 12-12h47.5" stroke="#333" fill="none"/><path d="M320.72 538.08l20 10-20 10" stroke="#333" fill="#fff" fill-opacity="0"/><path d="M320.72 548.08h20M340.72 558.08v-20M469.5 459.55v20M479.5 469.55h-20M459.5 459.55v20" stroke="#333" fill="#fff"/><path d="M100 742h240v33H100z" fill="#fff"/><path d="M100 774h240v32H100z" fill="#e6e6e6"/><path d="M100 702h240v40H100z" fill="#ccc"/><path d="M100 710c0-4.42 3.58-8 8-8h224c4.42 0 8 3.58 8 8v88c0 4.42-3.58 8-8 8H108c-4.42 0-8-3.58-8-8zM100 742h240M160 742v64" stroke="#333" fill="none"/><use xlink:href="#ao" transform="matrix(1,0,0,1,110,702) translate(66.05 23.6)"/><use xlink:href="#j" transform="matrix(1,0,0,1,105,744.5) translate(13 17.1)"/><use xlink:href="#ap" transform="matrix(1,0,0,1,165,744.5) translate(27.074999999999996 17.1)"/><use xlink:href="#w" transform="matrix(1,0,0,1,105,776.5) translate(13.524999999999999 17.1)"/><use xlink:href="#aq" transform="matrix(1,0,0,1,165,776.5) translate(1.5749999999999886 17.1)"/><path d="M440 752.9h240v33H440z" fill="#fff"/><path d="M440 784.9h240v32H440z" fill="#e6e6e6"/><path d="M440 712.9h240v40H440z" fill="#ccc"/><path d="M440 720.9c0-4.4 3.58-8 8-8h224c4.42 0 8 3.6 8 8v88c0 4.42-3.58 8-8 8H448c-4.42 0-8-3.58-8-8zM440 752.9h240M500 752.9v64" stroke="#333" fill="none"/><g><use xlink:href="#ar" transform="matrix(1,0,0,1,450,712.9057380816823) translate(66.6 23.6)"/></g><g><use xlink:href="#j" transform="matrix(1,0,0,1,445,755.4057380816823) translate(13 17.1)"/></g><g><use xlink:href="#as" transform="matrix(1,0,0,1,505,755.4057380816823) translate(27.624999999999993 17.1)"/></g><g><use xlink:href="#w" transform="matrix(1,0,0,1,445,787.4057380816823) translate(13.524999999999999 17.1)"/></g><g><use xlink:href="#at" transform="matrix(1,0,0,1,505,787.4057380816823) translate(2.125 17.1)"/></g><defs><path fill="#a9afb8" d="M24 0v-248h52v208h133V0H24" id="au"/><path fill="#a9afb8" d="M110-194c64 0 96 36 96 99 0 64-35 99-97 99-61 0-95-36-95-99 0-62 34-99 96-99zm-1 164c35 0 45-28 45-65 0-40-10-65-43-65-34 0-45 26-45 65 0 36 10 65 43 65" id="av"/><path fill="#a9afb8" d="M-4 44V30h207v14H-4" id="aw"/><path fill="#a9afb8" d="M240-174c0 40-23 61-54 70L253 0h-59l-57-94H76V0H24v-248c93 4 217-23 216 74zM76-134c48-2 112 12 112-38 0-48-66-32-112-35v73" id="ax"/><path fill="#a9afb8" d="M185-48c-13 30-37 53-82 52C43 2 14-33 14-96s30-98 90-98c62 0 83 45 84 108H66c0 31 8 55 39 56 18 0 30-7 34-22zm-45-69c5-46-57-63-70-21-2 6-4 13-4 21h74" id="ay"/><path fill="#a9afb8" d="M12 0v-35l95-120H19v-35h142v35L67-36h103V0H12" id="az"/><g id="a"><use transform="matrix(0.0728395061728395,0,0,0.0728395061728395,0,0)" xlink:href="#au"/><use transform="matrix(0.0728395061728395,0,0,0.0728395061728395,15.95185185185185,0)" xlink:href="#av"/><use transform="matrix(0.0728395061728395,0,0,0.0728395061728395,31.9037037037037,0)" xlink:href="#aw"/><use transform="matrix(0.0728395061728395,0,0,0.0728395061728395,46.471604938271604,0)" xlink:href="#ax"/><use transform="matrix(0.0728395061728395,0,0,0.0728395061728395,65.33703703703704,0)" xlink:href="#ay"/><use transform="matrix(0.0728395061728395,0,0,0.0728395061728395,79.90493827160493,0)" xlink:href="#az"/></g><path fill="#a9afb8" d="M169-182c-1-43-94-46-97-3 18 66 151 10 154 114 3 95-165 93-204 36-6-8-10-19-12-30l50-8c3 46 112 56 116 5-17-69-150-10-154-114-4-87 153-88 188-35 5 8 8 18 10 28" id="aA"/><path fill="#a9afb8" d="M115-3C79 11 28 4 28-45v-112H4v-33h27l15-45h31v45h36v33H77v99c-1 23 16 31 38 25v30" id="aB"/><path fill="#a9afb8" d="M85 4C-2 5 27-109 22-190h50c7 57-23 150 33 157 60-5 35-97 40-157h50l1 190h-47c-2-12 1-28-3-38-12 25-28 42-61 42" id="aC"/><path fill="#a9afb8" d="M88-194c31-1 46 15 58 34l-1-101h50l1 261h-48c-2-10 0-23-3-31C134-8 116 4 84 4 32 4 16-41 15-95c0-56 19-97 73-99zm17 164c33 0 40-30 41-66 1-37-9-64-41-64s-38 30-39 65c0 43 13 65 39 65" id="aD"/><path fill="#a9afb8" d="M25-224v-37h50v37H25zM25 0v-190h50V0H25" id="aE"/><path fill="#a9afb8" d="M137-138c1-29-70-34-71-4 15 46 118 7 119 86 1 83-164 76-172 9l43-7c4 19 20 25 44 25 33 8 57-30 24-41C81-84 22-81 20-136c-2-80 154-74 161-7" id="aF"/><g id="b"><use transform="matrix(0.0728395061728395,0,0,0.0728395061728395,0,0)" xlink:href="#aA"/><use transform="matrix(0.0728395061728395,0,0,0.0728395061728395,17.48148148148148,0)" xlink:href="#aB"/><use transform="matrix(0.0728395061728395,0,0,0.0728395061728395,26.14938271604938,0)" xlink:href="#aC"/><use transform="matrix(0.0728395061728395,0,0,0.0728395061728395,42.10123456790124,0)" xlink:href="#aD"/><use transform="matrix(0.0728395061728395,0,0,0.0728395061728395,58.05308641975308,0)" xlink:href="#aE"/><use transform="matrix(0.0728395061728395,0,0,0.0728395061728395,65.33703703703704,0)" xlink:href="#av"/><use transform="matrix(0.0728395061728395,0,0,0.0728395061728395,81.28888888888889,0)" xlink:href="#aF"/></g><path fill="#a9afb8" d="M240 0l2-218c-23 76-54 145-80 218h-23L58-218 59 0H30v-248h44l77 211c21-75 51-140 76-211h43V0h-30" id="aG"/><path fill="#a9afb8" d="M141-36C126-15 110 5 73 4 37 3 15-17 15-53c-1-64 63-63 125-63 3-35-9-54-41-54-24 1-41 7-42 31l-33-3c5-37 33-52 76-52 45 0 72 20 72 64v82c-1 20 7 32 28 27v20c-31 9-61-2-59-35zM48-53c0 20 12 33 32 33 41-3 63-29 60-74-43 2-92-5-92 41" id="aH"/><path fill="#a9afb8" d="M59-47c-2 24 18 29 38 22v24C64 9 27 4 27-40v-127H5v-23h24l9-43h21v43h35v23H59v120" id="aI"/><g id="c"><use transform="matrix(0.04248971193415638,0,0,0.04248971193415638,0,0)" xlink:href="#aG"/><use transform="matrix(0.04248971193415638,0,0,0.04248971193415638,12.704423868312757,0)" xlink:href="#aH"/><use transform="matrix(0.04248971193415638,0,0,0.04248971193415638,21.20236625514403,0)" xlink:href="#aI"/><use transform="matrix(0.04248971193415638,0,0,0.04248971193415638,25.45133744855967,0)" xlink:href="#aI"/></g><path fill="#a9afb8" d="M179-190L93 31C79 59 56 82 12 73V49c39 6 53-20 64-50L1-190h34L92-34l54-156h33" id="aJ"/><path fill="#a9afb8" d="M100-194c63 0 86 42 84 106H49c0 40 14 67 53 68 26 1 43-12 49-29l28 8c-11 28-37 45-77 45C44 4 14-33 15-96c1-61 26-98 85-98zm52 81c6-60-76-77-97-28-3 7-6 17-6 28h103" id="aK"/><path fill="#a9afb8" d="M114-163C36-179 61-72 57 0H25l-1-190h30c1 12-1 29 2 39 6-27 23-49 58-41v29" id="aL"/><path fill="#a9afb8" d="M135-143c-3-34-86-38-87 0 15 53 115 12 119 90S17 21 10-45l28-5c4 36 97 45 98 0-10-56-113-15-118-90-4-57 82-63 122-42 12 7 21 19 24 35" id="aM"/><g id="d"><use transform="matrix(0.04248971193415638,0,0,0.04248971193415638,0,0)" xlink:href="#aH"/><use transform="matrix(0.04248971193415638,0,0,0.04248971193415638,8.497942386831275,0)" xlink:href="#aJ"/><use transform="matrix(0.04248971193415638,0,0,0.04248971193415638,16.14609053497942,0)" xlink:href="#aK"/><use transform="matrix(0.04248971193415638,0,0,0.04248971193415638,24.644032921810698,0)" xlink:href="#aL"/><use transform="matrix(0.04248971193415638,0,0,0.04248971193415638,29.700308641975308,0)" xlink:href="#aM"/></g><path fill="#a9afb8" d="M32 76v-337h29V76H32" id="aN"/><use transform="matrix(0.04248971193415638,0,0,0.04248971193415638,0,0)" xlink:href="#aN" id="e"/><path fill="#a9afb8" d="M185-189c-5-48-123-54-124 2 14 75 158 14 163 119 3 78-121 87-175 55-17-10-28-26-33-46l33-7c5 56 141 63 141-1 0-78-155-14-162-118-5-82 145-84 179-34 5 7 8 16 11 25" id="aO"/><path fill="#a9afb8" d="M115-194c55 1 70 41 70 98S169 2 115 4C84 4 66-9 55-30l1 105H24l-1-265h31l2 30c10-21 28-34 59-34zm-8 174c40 0 45-34 45-75s-6-73-45-74c-42 0-51 32-51 76 0 43 10 73 51 73" id="aP"/><path fill="#a9afb8" d="M210-169c-67 3-38 105-44 169h-31v-121c0-29-5-50-35-48C34-165 62-65 56 0H25l-1-190h30c1 10-1 24 2 32 10-44 99-50 107 0 11-21 27-35 58-36 85-2 47 119 55 194h-31v-121c0-29-5-49-35-48" id="aQ"/><path fill="#a9afb8" d="M115-194c53 0 69 39 70 98 0 66-23 100-70 100C84 3 66-7 56-30L54 0H23l1-261h32v101c10-23 28-34 59-34zm-8 174c40 0 45-34 45-75 0-40-5-75-45-74-42 0-51 32-51 76 0 43 10 73 51 73" id="aR"/><g id="f"><use transform="matrix(0.04248971193415638,0,0,0.04248971193415638,0,0)" xlink:href="#aO"/><use transform="matrix(0.04248971193415638,0,0,0.04248971193415638,10.19753086419753,0)" xlink:href="#aK"/><use transform="matrix(0.04248971193415638,0,0,0.04248971193415638,18.695473251028805,0)" xlink:href="#aP"/><use transform="matrix(0.04248971193415638,0,0,0.04248971193415638,27.193415637860078,0)" xlink:href="#aI"/><use transform="matrix(0.04248971193415638,0,0,0.04248971193415638,31.442386831275712,0)" xlink:href="#aK"/><use transform="matrix(0.04248971193415638,0,0,0.04248971193415638,39.94032921810699,0)" xlink:href="#aQ"/><use transform="matrix(0.04248971193415638,0,0,0.04248971193415638,52.64475308641975,0)" xlink:href="#aR"/><use transform="matrix(0.04248971193415638,0,0,0.04248971193415638,61.142695473251024,0)" xlink:href="#aK"/><use transform="matrix(0.04248971193415638,0,0,0.04248971193415638,69.6406378600823,0)" xlink:href="#aL"/></g><path fill="#a9afb8" d="M101-251c82-7 93 87 43 132L82-64C71-53 59-42 53-27h129V0H18c2-99 128-94 128-182 0-28-16-43-45-43s-46 15-49 41l-32-3c6-41 34-60 81-64" id="aS"/><path fill="#a9afb8" d="M134-131c28 9 52 24 51 62-1 50-34 73-85 73S17-19 16-69c0-36 21-54 49-61-75-25-45-126 34-121 46 3 78 18 79 63 0 33-17 51-44 57zm-34-11c31 1 46-15 46-44 0-28-17-43-47-42-29 0-46 13-45 42 1 28 16 44 46 44zm1 122c35 0 51-18 51-52 0-30-18-46-53-46-33 0-51 17-51 47 0 34 19 51 53 51" id="aT"/><path fill="#a9afb8" d="M68-38c1 34 0 65-14 84H32c9-13 17-26 17-46H33v-38h35" id="aU"/><g id="g"><use transform="matrix(0.04248971193415638,0,0,0.04248971193415638,0,0)" xlink:href="#aS"/><use transform="matrix(0.04248971193415638,0,0,0.04248971193415638,8.497942386831275,0)" xlink:href="#aT"/><use transform="matrix(0.04248971193415638,0,0,0.04248971193415638,16.99588477366255,0)" xlink:href="#aU"/></g><path fill="#a9afb8" d="M101-251c68 0 85 55 85 127S166 4 100 4C33 4 14-52 14-124c0-73 17-127 87-127zm-1 229c47 0 54-49 54-102s-4-102-53-102c-51 0-55 48-55 102 0 53 5 102 54 102" id="aV"/><path fill="#a9afb8" d="M27 0v-27h64v-190l-56 39v-29l58-41h29v221h61V0H27" id="aW"/><g id="h"><use transform="matrix(0.04248971193415638,0,0,0.04248971193415638,0,0)" xlink:href="#aS"/><use transform="matrix(0.04248971193415638,0,0,0.04248971193415638,8.497942386831275,0)" xlink:href="#aV"/><use transform="matrix(0.04248971193415638,0,0,0.04248971193415638,16.99588477366255,0)" xlink:href="#aS"/><use transform="matrix(0.04248971193415638,0,0,0.04248971193415638,25.493827160493822,0)" xlink:href="#aW"/></g><path fill="#333" d="M143 4C61 4 22-44 18-125c-5-107 100-154 193-111 17 8 29 25 37 43l-32 9c-13-25-37-40-76-40-61 0-88 39-88 99 0 61 29 100 91 101 35 0 62-11 79-27v-45h-74v-28h105v86C228-13 192 4 143 4" id="aX"/><path fill="#333" d="M100-194c62-1 85 37 85 99 1 63-27 99-86 99S16-35 15-95c0-66 28-99 85-99zM99-20c44 1 53-31 53-75 0-43-8-75-51-75s-53 32-53 75 10 74 51 75" id="aY"/><path fill="#333" d="M85-194c31 0 48 13 60 33l-1-100h32l1 261h-30c-2-10 0-23-3-31C134-8 116 4 85 4 32 4 16-35 15-94c0-66 23-100 70-100zm9 24c-40 0-46 34-46 75 0 40 6 74 45 74 42 0 51-32 51-76 0-42-9-74-50-73" id="aZ"/><path fill="#333" d="M135-143c-3-34-86-38-87 0 15 53 115 12 119 90S17 21 10-45l28-5c4 36 97 45 98 0-10-56-113-15-118-90-4-57 82-63 122-42 12 7 21 19 24 35" id="ba"/><g id="i"><use transform="matrix(0.05,0,0,0.05,0,0)" xlink:href="#aX"/><use transform="matrix(0.05,0,0,0.05,14,0)" xlink:href="#aY"/><use transform="matrix(0.05,0,0,0.05,24,0)" xlink:href="#aZ"/><use transform="matrix(0.05,0,0,0.05,34,0)" xlink:href="#ba"/></g><path fill="#333" d="M30-248c87 1 191-15 191 75 0 78-77 80-158 76V0H30v-248zm33 125c57 0 124 11 124-50 0-59-68-47-124-48v98" id="bb"/><path fill="#333" d="M194 0L95-120 63-95V0H30v-248h33v124l119-124h40L117-140 236 0h-42" id="bc"/><g id="j"><use transform="matrix(0.05,0,0,0.05,0,0)" xlink:href="#bb"/><use transform="matrix(0.05,0,0,0.05,12,0)" xlink:href="#bc"/></g><path fill="#333" d="M-5 72V49h209v23H-5" id="bd"/><path fill="#333" d="M190 0L58-211 59 0H30v-248h39L202-35l-2-213h31V0h-41" id="be"/><path fill="#333" d="M141-36C126-15 110 5 73 4 37 3 15-17 15-53c-1-64 63-63 125-63 3-35-9-54-41-54-24 1-41 7-42 31l-33-3c5-37 33-52 76-52 45 0 72 20 72 64v82c-1 20 7 32 28 27v20c-31 9-61-2-59-35zM48-53c0 20 12 33 32 33 41-3 63-29 60-74-43 2-92-5-92 41" id="bf"/><path fill="#333" d="M210-169c-67 3-38 105-44 169h-31v-121c0-29-5-50-35-48C34-165 62-65 56 0H25l-1-190h30c1 10-1 24 2 32 10-44 99-50 107 0 11-21 27-35 58-36 85-2 47 119 55 194h-31v-121c0-29-5-49-35-48" id="bg"/><path fill="#333" d="M100-194c63 0 86 42 84 106H49c0 40 14 67 53 68 26 1 43-12 49-29l28 8c-11 28-37 45-77 45C44 4 14-33 15-96c1-61 26-98 85-98zm52 81c6-60-76-77-97-28-3 7-6 17-6 28h103" id="bh"/><g id="k"><use transform="matrix(0.05,0,0,0.05,0,0)" xlink:href="#aX"/><use transform="matrix(0.05,0,0,0.05,14,0)" xlink:href="#aY"/><use transform="matrix(0.05,0,0,0.05,24,0)" xlink:href="#aZ"/><use transform="matrix(0.05,0,0,0.05,34,0)" xlink:href="#bd"/><use transform="matrix(0.05,0,0,0.05,44,0)" xlink:href="#be"/><use transform="matrix(0.05,0,0,0.05,56.95,0)" xlink:href="#bf"/><use transform="matrix(0.05,0,0,0.05,66.95,0)" xlink:href="#bg"/><use transform="matrix(0.05,0,0,0.05,81.9,0)" xlink:href="#bh"/></g><path fill="#333" d="M212-179c-10-28-35-45-73-45-59 0-87 40-87 99 0 60 29 101 89 101 43 0 62-24 78-52l27 14C228-24 195 4 139 4 59 4 22-46 18-125c-6-104 99-153 187-111 19 9 31 26 39 46" id="bi"/><path fill="#333" d="M24 0v-261h32V0H24" id="bj"/><g id="l"><use transform="matrix(0.05,0,0,0.05,0,0)" xlink:href="#aX"/><use transform="matrix(0.05,0,0,0.05,14,0)" xlink:href="#aY"/><use transform="matrix(0.05,0,0,0.05,24,0)" xlink:href="#aZ"/><use transform="matrix(0.05,0,0,0.05,34,0)" xlink:href="#bd"/><use transform="matrix(0.05,0,0,0.05,44,0)" xlink:href="#bi"/><use transform="matrix(0.05,0,0,0.05,56.95,0)" xlink:href="#bj"/><use transform="matrix(0.05,0,0,0.05,60.900000000000006,0)" xlink:href="#bf"/><use transform="matrix(0.05,0,0,0.05,70.9,0)" xlink:href="#ba"/><use transform="matrix(0.05,0,0,0.05,79.9,0)" xlink:href="#ba"/></g><path fill="#333" d="M160-131c35 5 61 23 61 61C221 17 115-2 30 0v-248c76 3 177-17 177 60 0 33-19 50-47 57zm-97-11c50-1 110 9 110-42 0-47-63-36-110-37v79zm0 115c55-2 124 14 124-45 0-56-70-42-124-44v89" id="bk"/><path fill="#333" d="M117-194c89-4 53 116 60 194h-32v-121c0-31-8-49-39-48C34-167 62-67 57 0H25l-1-190h30c1 10-1 24 2 32 11-22 29-35 61-36" id="bl"/><path fill="#333" d="M233-177c-1 41-23 64-60 70L243 0h-38l-65-103H63V0H30v-248c88 3 205-21 203 71zM63-129c60-2 137 13 137-47 0-61-80-42-137-45v92" id="bm"/><path fill="#333" d="M59-47c-2 24 18 29 38 22v24C64 9 27 4 27-40v-127H5v-23h24l9-43h21v43h35v23H59v120" id="bn"/><g id="m"><use transform="matrix(0.05,0,0,0.05,0,0)" xlink:href="#bk"/><use transform="matrix(0.05,0,0,0.05,12,0)" xlink:href="#bf"/><use transform="matrix(0.05,0,0,0.05,22,0)" xlink:href="#bl"/><use transform="matrix(0.05,0,0,0.05,32,0)" xlink:href="#bd"/><use transform="matrix(0.05,0,0,0.05,42,0)" xlink:href="#bm"/><use transform="matrix(0.05,0,0,0.05,54.95,0)" xlink:href="#bf"/><use transform="matrix(0.05,0,0,0.05,64.95,0)" xlink:href="#bn"/><use transform="matrix(0.05,0,0,0.05,69.95,0)" xlink:href="#bh"/></g><path fill="#333" d="M24-231v-30h32v30H24zM24 0v-190h32V0H24" id="bo"/><path fill="#333" d="M96-169c-40 0-48 33-48 73s9 75 48 75c24 0 41-14 43-38l32 2c-6 37-31 61-74 61-59 0-76-41-82-99-10-93 101-131 147-64 4 7 5 14 7 22l-32 3c-4-21-16-35-41-35" id="bp"/><path fill="#333" d="M143 0L79-87 56-68V0H24v-261h32v163l83-92h37l-77 82L181 0h-38" id="bq"/><g id="n"><use transform="matrix(0.05,0,0,0.05,0,0)" xlink:href="#bb"/><use transform="matrix(0.05,0,0,0.05,12,0)" xlink:href="#bo"/><use transform="matrix(0.05,0,0,0.05,15.949999999999998,0)" xlink:href="#bp"/><use transform="matrix(0.05,0,0,0.05,24.95,0)" xlink:href="#bq"/><use transform="matrix(0.05,0,0,0.05,33.95,0)" xlink:href="#bd"/><use transform="matrix(0.05,0,0,0.05,43.95,0)" xlink:href="#bm"/><use transform="matrix(0.05,0,0,0.05,56.900000000000006,0)" xlink:href="#bf"/><use transform="matrix(0.05,0,0,0.05,66.9,0)" xlink:href="#bn"/><use transform="matrix(0.05,0,0,0.05,71.9,0)" xlink:href="#bh"/></g><path fill="#333" d="M63-220v92h138v28H63V0H30v-248h175v28H63" id="br"/><path fill="#333" d="M114-163C36-179 61-72 57 0H25l-1-190h30c1 12-1 29 2 39 6-27 23-49 58-41v29" id="bs"/><path fill="#333" d="M205 0l-28-72H64L36 0H1l101-248h38L239 0h-34zm-38-99l-47-123c-12 45-31 82-46 123h93" id="bt"/><path fill="#333" d="M115-194c53 0 69 39 70 98 0 66-23 100-70 100C84 3 66-7 56-30L54 0H23l1-261h32v101c10-23 28-34 59-34zm-8 174c40 0 45-34 45-75 0-40-5-75-45-74-42 0-51 32-51 76 0 43 10 73 51 73" id="bu"/><path fill="#333" d="M179-190L93 31C79 59 56 82 12 73V49c39 6 53-20 64-50L1-190h34L92-34l54-156h33" id="bv"/><g id="o"><use transform="matrix(0.05,0,0,0.05,0,0)" xlink:href="#br"/><use transform="matrix(0.05,0,0,0.05,10.950000000000001,0)" xlink:href="#bo"/><use transform="matrix(0.05,0,0,0.05,14.9,0)" xlink:href="#bs"/><use transform="matrix(0.05,0,0,0.05,20.85,0)" xlink:href="#ba"/><use transform="matrix(0.05,0,0,0.05,29.85,0)" xlink:href="#bn"/><use transform="matrix(0.05,0,0,0.05,34.85,0)" xlink:href="#bd"/><use transform="matrix(0.05,0,0,0.05,44.85,0)" xlink:href="#bt"/><use transform="matrix(0.05,0,0,0.05,56.85,0)" xlink:href="#bu"/><use transform="matrix(0.05,0,0,0.05,66.85,0)" xlink:href="#bo"/><use transform="matrix(0.05,0,0,0.05,70.8,0)" xlink:href="#bj"/><use transform="matrix(0.05,0,0,0.05,74.75,0)" xlink:href="#bo"/><use transform="matrix(0.05,0,0,0.05,78.7,0)" xlink:href="#bn"/><use transform="matrix(0.05,0,0,0.05,83.7,0)" xlink:href="#bv"/></g><path fill="#333" d="M185-189c-5-48-123-54-124 2 14 75 158 14 163 119 3 78-121 87-175 55-17-10-28-26-33-46l33-7c5 56 141 63 141-1 0-78-155-14-162-118-5-82 145-84 179-34 5 7 8 16 11 25" id="bw"/><g id="p"><use transform="matrix(0.05,0,0,0.05,0,0)" xlink:href="#bw"/><use transform="matrix(0.05,0,0,0.05,12,0)" xlink:href="#bh"/><use transform="matrix(0.05,0,0,0.05,22,0)" xlink:href="#bp"/><use transform="matrix(0.05,0,0,0.05,31,0)" xlink:href="#aY"/><use transform="matrix(0.05,0,0,0.05,41,0)" xlink:href="#bl"/><use transform="matrix(0.05,0,0,0.05,51,0)" xlink:href="#aZ"/><use transform="matrix(0.05,0,0,0.05,61,0)" xlink:href="#bd"/><use transform="matrix(0.05,0,0,0.05,71,0)" xlink:href="#bt"/><use transform="matrix(0.05,0,0,0.05,83,0)" xlink:href="#bu"/><use transform="matrix(0.05,0,0,0.05,93,0)" xlink:href="#bo"/><use transform="matrix(0.05,0,0,0.05,96.95,0)" xlink:href="#bj"/><use transform="matrix(0.05,0,0,0.05,100.9,0)" xlink:href="#bo"/><use transform="matrix(0.05,0,0,0.05,104.85000000000001,0)" xlink:href="#bn"/><use transform="matrix(0.05,0,0,0.05,109.85000000000001,0)" xlink:href="#bv"/></g><path fill="#333" d="M127-220V0H93v-220H8v-28h204v28h-85" id="bx"/><path fill="#333" d="M106-169C34-169 62-67 57 0H25v-261h32l-1 103c12-21 28-36 61-36 89 0 53 116 60 194h-32v-121c2-32-8-49-39-48" id="by"/><g id="q"><use transform="matrix(0.05,0,0,0.05,0,0)" xlink:href="#bx"/><use transform="matrix(0.05,0,0,0.05,10.950000000000001,0)" xlink:href="#by"/><use transform="matrix(0.05,0,0,0.05,20.950000000000003,0)" xlink:href="#bo"/><use transform="matrix(0.05,0,0,0.05,24.900000000000002,0)" xlink:href="#bs"/><use transform="matrix(0.05,0,0,0.05,30.85,0)" xlink:href="#aZ"/><use transform="matrix(0.05,0,0,0.05,40.85,0)" xlink:href="#bd"/><use transform="matrix(0.05,0,0,0.05,50.85,0)" xlink:href="#bt"/><use transform="matrix(0.05,0,0,0.05,62.85,0)" xlink:href="#bu"/><use transform="matrix(0.05,0,0,0.05,72.85,0)" xlink:href="#bo"/><use transform="matrix(0.05,0,0,0.05,76.8,0)" xlink:href="#bj"/><use transform="matrix(0.05,0,0,0.05,80.75,0)" xlink:href="#bo"/><use transform="matrix(0.05,0,0,0.05,84.7,0)" xlink:href="#bn"/><use transform="matrix(0.05,0,0,0.05,89.7,0)" xlink:href="#bv"/></g><path fill="#333" d="M232-93c-1 65-40 97-104 97C67 4 28-28 28-90v-158h33c8 89-33 224 67 224 102 0 64-133 71-224h33v155" id="bz"/><g id="r"><use transform="matrix(0.05,0,0,0.05,0,0)" xlink:href="#bz"/><use transform="matrix(0.05,0,0,0.05,12.950000000000001,0)" xlink:href="#bj"/><use transform="matrix(0.05,0,0,0.05,16.900000000000002,0)" xlink:href="#bn"/><use transform="matrix(0.05,0,0,0.05,21.900000000000002,0)" xlink:href="#bo"/><use transform="matrix(0.05,0,0,0.05,25.85,0)" xlink:href="#bg"/><use transform="matrix(0.05,0,0,0.05,40.800000000000004,0)" xlink:href="#bf"/><use transform="matrix(0.05,0,0,0.05,50.800000000000004,0)" xlink:href="#bn"/><use transform="matrix(0.05,0,0,0.05,55.800000000000004,0)" xlink:href="#bh"/></g><g id="s"><use transform="matrix(0.05,0,0,0.05,0,0)" xlink:href="#bx"/><use transform="matrix(0.05,0,0,0.05,8.950000000000001,0)" xlink:href="#bh"/><use transform="matrix(0.05,0,0,0.05,18.950000000000003,0)" xlink:href="#bf"/><use transform="matrix(0.05,0,0,0.05,28.950000000000003,0)" xlink:href="#bg"/><use transform="matrix(0.05,0,0,0.05,43.900000000000006,0)" xlink:href="#ba"/></g><path fill="#333" d="M33 0v-248h34V0H33" id="bA"/><path fill="#333" d="M30-248c118-7 216 8 213 122C240-48 200 0 122 0H30v-248zM63-27c89 8 146-16 146-99s-60-101-146-95v194" id="bB"/><g id="t"><use transform="matrix(0.05,0,0,0.05,0,0)" xlink:href="#bx"/><use transform="matrix(0.05,0,0,0.05,8.950000000000001,0)" xlink:href="#bh"/><use transform="matrix(0.05,0,0,0.05,18.950000000000003,0)" xlink:href="#bf"/><use transform="matrix(0.05,0,0,0.05,28.950000000000003,0)" xlink:href="#bg"/><use transform="matrix(0.05,0,0,0.05,43.900000000000006,0)" xlink:href="#bd"/><use transform="matrix(0.05,0,0,0.05,53.900000000000006,0)" xlink:href="#bA"/><use transform="matrix(0.05,0,0,0.05,58.900000000000006,0)" xlink:href="#bB"/></g><g id="u"><use transform="matrix(0.05,0,0,0.05,0,0)" xlink:href="#bx"/><use transform="matrix(0.05,0,0,0.05,8.950000000000001,0)" xlink:href="#bh"/><use transform="matrix(0.05,0,0,0.05,18.950000000000003,0)" xlink:href="#bf"/><use transform="matrix(0.05,0,0,0.05,28.950000000000003,0)" xlink:href="#bg"/><use transform="matrix(0.05,0,0,0.05,43.900000000000006,0)" xlink:href="#bd"/><use transform="matrix(0.05,0,0,0.05,53.900000000000006,0)" xlink:href="#be"/><use transform="matrix(0.05,0,0,0.05,66.85000000000001,0)" xlink:href="#bf"/><use transform="matrix(0.05,0,0,0.05,76.85000000000001,0)" xlink:href="#bg"/><use transform="matrix(0.05,0,0,0.05,91.80000000000001,0)" xlink:href="#bh"/></g><path fill="#333" d="M140-251c81 0 123 46 123 126C263-46 219 4 140 4 59 4 17-45 17-125s42-126 123-126zm0 227c63 0 89-41 89-101s-29-99-89-99c-61 0-89 39-89 99S79-25 140-24" id="bC"/><path fill="#333" d="M177-190C167-65 218 103 67 71c-23-6-38-20-44-43l32-5c15 47 100 32 89-28v-30C133-14 115 1 83 1 29 1 15-40 15-95c0-56 16-97 71-98 29-1 48 16 59 35 1-10 0-23 2-32h30zM94-22c36 0 50-32 50-73 0-42-14-75-50-75-39 0-46 34-46 75s6 73 46 73" id="bD"/><path fill="#333" d="M9 0v-24l116-142H16v-24h144v24L44-24h123V0H9" id="bE"/><g id="v"><use transform="matrix(0.05,0,0,0.05,0,0)" xlink:href="#bx"/><use transform="matrix(0.05,0,0,0.05,8.950000000000001,0)" xlink:href="#bh"/><use transform="matrix(0.05,0,0,0.05,18.950000000000003,0)" xlink:href="#bf"/><use transform="matrix(0.05,0,0,0.05,28.950000000000003,0)" xlink:href="#bg"/><use transform="matrix(0.05,0,0,0.05,43.900000000000006,0)" xlink:href="#bd"/><use transform="matrix(0.05,0,0,0.05,53.900000000000006,0)" xlink:href="#bC"/><use transform="matrix(0.05,0,0,0.05,67.9,0)" xlink:href="#bs"/><use transform="matrix(0.05,0,0,0.05,73.85000000000001,0)" xlink:href="#bD"/><use transform="matrix(0.05,0,0,0.05,83.85000000000001,0)" xlink:href="#bf"/><use transform="matrix(0.05,0,0,0.05,93.85000000000001,0)" xlink:href="#bl"/><use transform="matrix(0.05,0,0,0.05,103.85000000000001,0)" xlink:href="#bo"/><use transform="matrix(0.05,0,0,0.05,107.80000000000001,0)" xlink:href="#bE"/><use transform="matrix(0.05,0,0,0.05,116.80000000000001,0)" xlink:href="#bf"/><use transform="matrix(0.05,0,0,0.05,126.80000000000001,0)" xlink:href="#bn"/><use transform="matrix(0.05,0,0,0.05,131.8,0)" xlink:href="#bo"/><use transform="matrix(0.05,0,0,0.05,135.75,0)" xlink:href="#aY"/><use transform="matrix(0.05,0,0,0.05,145.75,0)" xlink:href="#bl"/></g><g id="w"><use transform="matrix(0.05,0,0,0.05,0,0)" xlink:href="#br"/><use transform="matrix(0.05,0,0,0.05,10.950000000000001,0)" xlink:href="#bc"/></g><g id="x"><use transform="matrix(0.05,0,0,0.05,0,0)" xlink:href="#bm"/><use transform="matrix(0.05,0,0,0.05,12.950000000000001,0)" xlink:href="#bh"/><use transform="matrix(0.05,0,0,0.05,22.950000000000003,0)" xlink:href="#bp"/><use transform="matrix(0.05,0,0,0.05,31.950000000000003,0)" xlink:href="#aY"/><use transform="matrix(0.05,0,0,0.05,41.95,0)" xlink:href="#aZ"/><use transform="matrix(0.05,0,0,0.05,51.95,0)" xlink:href="#bd"/><use transform="matrix(0.05,0,0,0.05,61.95,0)" xlink:href="#bA"/><use transform="matrix(0.05,0,0,0.05,66.95,0)" xlink:href="#bB"/></g><g id="y"><use transform="matrix(0.05,0,0,0.05,0,0)" xlink:href="#bb"/><use transform="matrix(0.05,0,0,0.05,12,0)" xlink:href="#bj"/><use transform="matrix(0.05,0,0,0.05,15.949999999999998,0)" xlink:href="#bf"/><use transform="matrix(0.05,0,0,0.05,25.950000000000003,0)" xlink:href="#bv"/><use transform="matrix(0.05,0,0,0.05,34.95,0)" xlink:href="#bh"/><use transform="matrix(0.05,0,0,0.05,44.95,0)" xlink:href="#bs"/><use transform="matrix(0.05,0,0,0.05,50.900000000000006,0)" xlink:href="#bd"/><use transform="matrix(0.05,0,0,0.05,60.900000000000006,0)" xlink:href="#bA"/><use transform="matrix(0.05,0,0,0.05,65.9,0)" xlink:href="#bB"/></g><path d="M240 0l2-218c-23 76-54 145-80 218h-23L58-218 59 0H30v-248h44l77 211c21-75 51-140 76-211h43V0h-30" id="bF"/><path d="M100-194c63 0 86 42 84 106H49c0 40 14 67 53 68 26 1 43-12 49-29l28 8c-11 28-37 45-77 45C44 4 14-33 15-96c1-61 26-98 85-98zm52 81c6-60-76-77-97-28-3 7-6 17-6 28h103" id="bG"/><path d="M114-163C36-179 61-72 57 0H25l-1-190h30c1 12-1 29 2 39 6-27 23-49 58-41v29" id="bH"/><path d="M96-169c-40 0-48 33-48 73s9 75 48 75c24 0 41-14 43-38l32 2c-6 37-31 61-74 61-59 0-76-41-82-99-10-93 101-131 147-64 4 7 5 14 7 22l-32 3c-4-21-16-35-41-35" id="bI"/><path d="M106-169C34-169 62-67 57 0H25v-261h32l-1 103c12-21 28-36 61-36 89 0 53 116 60 194h-32v-121c2-32-8-49-39-48" id="bJ"/><path d="M-5 72V49h209v23H-5" id="bK"/><path d="M33 0v-248h34V0H33" id="bL"/><path d="M30-248c118-7 216 8 213 122C240-48 200 0 122 0H30v-248zM63-27c89 8 146-16 146-99s-60-101-146-95v194" id="bM"/><g id="z"><use transform="matrix(0.05925925925925927,0,0,0.05925925925925927,0,0)" xlink:href="#bF"/><use transform="matrix(0.05925925925925927,0,0,0.05925925925925927,17.718518518518522,0)" xlink:href="#bG"/><use transform="matrix(0.05925925925925927,0,0,0.05925925925925927,29.570370370370377,0)" xlink:href="#bH"/><use transform="matrix(0.05925925925925927,0,0,0.05925925925925927,36.62222222222223,0)" xlink:href="#bI"/><use transform="matrix(0.05925925925925927,0,0,0.05925925925925927,47.28888888888889,0)" xlink:href="#bJ"/><use transform="matrix(0.05925925925925927,0,0,0.05925925925925927,59.140740740740746,0)" xlink:href="#bK"/><use transform="matrix(0.05925925925925927,0,0,0.05925925925925927,70.9925925925926,0)" xlink:href="#bL"/><use transform="matrix(0.05925925925925927,0,0,0.05925925925925927,76.91851851851852,0)" xlink:href="#bM"/></g><g id="A"><use transform="matrix(0.05,0,0,0.05,0,0)" xlink:href="#aX"/><use transform="matrix(0.05,0,0,0.05,14,0)" xlink:href="#bf"/><use transform="matrix(0.05,0,0,0.05,24,0)" xlink:href="#bg"/><use transform="matrix(0.05,0,0,0.05,38.95,0)" xlink:href="#bh"/><use transform="matrix(0.05,0,0,0.05,48.95,0)" xlink:href="#ba"/></g><g id="B"><use transform="matrix(0.05,0,0,0.05,0,0)" xlink:href="#aX"/><use transform="matrix(0.05,0,0,0.05,14,0)" xlink:href="#bf"/><use transform="matrix(0.05,0,0,0.05,24,0)" xlink:href="#bg"/><use transform="matrix(0.05,0,0,0.05,38.95,0)" xlink:href="#bh"/><use transform="matrix(0.05,0,0,0.05,48.95,0)" xlink:href="#bd"/><use transform="matrix(0.05,0,0,0.05,58.95,0)" xlink:href="#bA"/><use transform="matrix(0.05,0,0,0.05,63.95,0)" xlink:href="#bB"/></g><g id="C"><use transform="matrix(0.05,0,0,0.05,0,0)" xlink:href="#aX"/><use transform="matrix(0.05,0,0,0.05,14,0)" xlink:href="#bf"/><use transform="matrix(0.05,0,0,0.05,24,0)" xlink:href="#bg"/><use transform="matrix(0.05,0,0,0.05,38.95,0)" xlink:href="#bh"/><use transform="matrix(0.05,0,0,0.05,48.95,0)" xlink:href="#bd"/><use transform="matrix(0.05,0,0,0.05,58.95,0)" xlink:href="#bB"/><use transform="matrix(0.05,0,0,0.05,71.9,0)" xlink:href="#bf"/><use transform="matrix(0.05,0,0,0.05,81.9,0)" xlink:href="#bn"/><use transform="matrix(0.05,0,0,0.05,86.9,0)" xlink:href="#bh"/></g><g id="D"><use transform="matrix(0.05,0,0,0.05,0,0)" xlink:href="#aX"/><use transform="matrix(0.05,0,0,0.05,14,0)" xlink:href="#bf"/><use transform="matrix(0.05,0,0,0.05,24,0)" xlink:href="#bg"/><use transform="matrix(0.05,0,0,0.05,38.95,0)" xlink:href="#bh"/><use transform="matrix(0.05,0,0,0.05,48.95,0)" xlink:href="#bd"/><use transform="matrix(0.05,0,0,0.05,58.95,0)" xlink:href="#bx"/><use transform="matrix(0.05,0,0,0.05,69.25,0)" xlink:href="#bo"/><use transform="matrix(0.05,0,0,0.05,73.2,0)" xlink:href="#bg"/><use transform="matrix(0.05,0,0,0.05,88.15,0)" xlink:href="#bh"/></g><path fill="#333" d="M206 0h-36l-40-164L89 0H53L-1-190h32L70-26l43-164h34l41 164 42-164h31" id="bN"/><g id="E"><use transform="matrix(0.05,0,0,0.05,0,0)" xlink:href="#bx"/><use transform="matrix(0.05,0,0,0.05,9.950000000000001,0)" xlink:href="#bN"/><use transform="matrix(0.05,0,0,0.05,22.900000000000002,0)" xlink:href="#bo"/><use transform="matrix(0.05,0,0,0.05,26.85,0)" xlink:href="#bn"/><use transform="matrix(0.05,0,0,0.05,31.85,0)" xlink:href="#bp"/><use transform="matrix(0.05,0,0,0.05,40.85,0)" xlink:href="#by"/><use transform="matrix(0.05,0,0,0.05,50.85,0)" xlink:href="#bd"/><use transform="matrix(0.05,0,0,0.05,60.85,0)" xlink:href="#bi"/><use transform="matrix(0.05,0,0,0.05,73.8,0)" xlink:href="#bf"/><use transform="matrix(0.05,0,0,0.05,83.8,0)" xlink:href="#ba"/><use transform="matrix(0.05,0,0,0.05,92.8,0)" xlink:href="#bn"/><use transform="matrix(0.05,0,0,0.05,97.8,0)" xlink:href="#bh"/><use transform="matrix(0.05,0,0,0.05,107.80000000000001,0)" xlink:href="#bs"/><use transform="matrix(0.05,0,0,0.05,113.75,0)" xlink:href="#bd"/><use transform="matrix(0.05,0,0,0.05,123.75,0)" xlink:href="#bA"/><use transform="matrix(0.05,0,0,0.05,128.75,0)" xlink:href="#bB"/></g><g id="F"><use transform="matrix(0.05,0,0,0.05,0,0)" xlink:href="#aX"/><use transform="matrix(0.05,0,0,0.05,14,0)" xlink:href="#aY"/><use transform="matrix(0.05,0,0,0.05,24,0)" xlink:href="#aZ"/><use transform="matrix(0.05,0,0,0.05,34,0)" xlink:href="#ba"/><use transform="matrix(0.05,0,0,0.05,43,0)" xlink:href="#bd"/><use transform="matrix(0.05,0,0,0.05,53,0)" xlink:href="#bw"/><use transform="matrix(0.05,0,0,0.05,65,0)" xlink:href="#bh"/><use transform="matrix(0.05,0,0,0.05,75,0)" xlink:href="#bj"/><use transform="matrix(0.05,0,0,0.05,78.95,0)" xlink:href="#bh"/><use transform="matrix(0.05,0,0,0.05,88.95,0)" xlink:href="#bp"/><use transform="matrix(0.05,0,0,0.05,97.95,0)" xlink:href="#bn"/><use transform="matrix(0.05,0,0,0.05,102.95,0)" xlink:href="#bh"/><use transform="matrix(0.05,0,0,0.05,112.95,0)" xlink:href="#aZ"/><use transform="matrix(0.05,0,0,0.05,122.95,0)" xlink:href="#bd"/><use transform="matrix(0.05,0,0,0.05,132.95,0)" xlink:href="#bA"/><use transform="matrix(0.05,0,0,0.05,137.95,0)" xlink:href="#bB"/></g><path fill="#333" d="M84 4C-5 8 30-112 23-190h32v120c0 31 7 50 39 49 72-2 45-101 50-169h31l1 190h-30c-1-10 1-25-2-33-11 22-28 36-60 37" id="bO"/><g id="G"><use transform="matrix(0.05,0,0,0.05,0,0)" xlink:href="#bx"/><use transform="matrix(0.05,0,0,0.05,8.950000000000001,0)" xlink:href="#aY"/><use transform="matrix(0.05,0,0,0.05,18.950000000000003,0)" xlink:href="#bO"/><use transform="matrix(0.05,0,0,0.05,28.950000000000003,0)" xlink:href="#bs"/><use transform="matrix(0.05,0,0,0.05,34.900000000000006,0)" xlink:href="#bl"/><use transform="matrix(0.05,0,0,0.05,44.900000000000006,0)" xlink:href="#bf"/><use transform="matrix(0.05,0,0,0.05,54.900000000000006,0)" xlink:href="#bg"/><use transform="matrix(0.05,0,0,0.05,69.85000000000001,0)" xlink:href="#bh"/><use transform="matrix(0.05,0,0,0.05,79.85000000000001,0)" xlink:href="#bl"/><use transform="matrix(0.05,0,0,0.05,89.85000000000001,0)" xlink:href="#bn"/><use transform="matrix(0.05,0,0,0.05,94.85000000000001,0)" xlink:href="#ba"/></g><g id="H"><use transform="matrix(0.05,0,0,0.05,0,0)" xlink:href="#bx"/><use transform="matrix(0.05,0,0,0.05,8.950000000000001,0)" xlink:href="#aY"/><use transform="matrix(0.05,0,0,0.05,18.950000000000003,0)" xlink:href="#bO"/><use transform="matrix(0.05,0,0,0.05,28.950000000000003,0)" xlink:href="#bs"/><use transform="matrix(0.05,0,0,0.05,34.900000000000006,0)" xlink:href="#bl"/><use transform="matrix(0.05,0,0,0.05,44.900000000000006,0)" xlink:href="#bh"/><use transform="matrix(0.05,0,0,0.05,54.900000000000006,0)" xlink:href="#bv"/><use transform="matrix(0.05,0,0,0.05,63.900000000000006,0)" xlink:href="#bd"/><use transform="matrix(0.05,0,0,0.05,73.9,0)" xlink:href="#bA"/><use transform="matrix(0.05,0,0,0.05,78.9,0)" xlink:href="#bB"/></g><path fill="#333" d="M30 0v-248h33v221h125V0H30" id="bP"/><g id="I"><use transform="matrix(0.05,0,0,0.05,0,0)" xlink:href="#bx"/><use transform="matrix(0.05,0,0,0.05,8.950000000000001,0)" xlink:href="#aY"/><use transform="matrix(0.05,0,0,0.05,18.950000000000003,0)" xlink:href="#bO"/><use transform="matrix(0.05,0,0,0.05,28.950000000000003,0)" xlink:href="#bs"/><use transform="matrix(0.05,0,0,0.05,34.900000000000006,0)" xlink:href="#bl"/><use transform="matrix(0.05,0,0,0.05,44.900000000000006,0)" xlink:href="#bh"/><use transform="matrix(0.05,0,0,0.05,54.900000000000006,0)" xlink:href="#bv"/><use transform="matrix(0.05,0,0,0.05,63.900000000000006,0)" xlink:href="#bd"/><use transform="matrix(0.05,0,0,0.05,73.9,0)" xlink:href="#bP"/><use transform="matrix(0.05,0,0,0.05,83.9,0)" xlink:href="#aY"/><use transform="matrix(0.05,0,0,0.05,93.9,0)" xlink:href="#bp"/><use transform="matrix(0.05,0,0,0.05,102.9,0)" xlink:href="#bf"/><use transform="matrix(0.05,0,0,0.05,112.9,0)" xlink:href="#bn"/><use transform="matrix(0.05,0,0,0.05,117.9,0)" xlink:href="#bo"/><use transform="matrix(0.05,0,0,0.05,121.85000000000001,0)" xlink:href="#aY"/><use transform="matrix(0.05,0,0,0.05,131.85000000000002,0)" xlink:href="#bl"/><use transform="matrix(0.05,0,0,0.05,141.85000000000002,0)" xlink:href="#bd"/><use transform="matrix(0.05,0,0,0.05,151.85000000000002,0)" xlink:href="#bA"/><use transform="matrix(0.05,0,0,0.05,156.85000000000002,0)" xlink:href="#bB"/></g><g id="J"><use transform="matrix(0.05,0,0,0.05,0,0)" xlink:href="#bb"/><use transform="matrix(0.05,0,0,0.05,12,0)" xlink:href="#bj"/><use transform="matrix(0.05,0,0,0.05,15.949999999999998,0)" xlink:href="#bf"/><use transform="matrix(0.05,0,0,0.05,25.950000000000003,0)" xlink:href="#bv"/><use transform="matrix(0.05,0,0,0.05,34.95,0)" xlink:href="#bh"/><use transform="matrix(0.05,0,0,0.05,44.95,0)" xlink:href="#bs"/><use transform="matrix(0.05,0,0,0.05,50.900000000000006,0)" xlink:href="#ba"/></g><g id="K"><use transform="matrix(0.05,0,0,0.05,0,0)" xlink:href="#bb"/><use transform="matrix(0.05,0,0,0.05,12,0)" xlink:href="#bj"/><use transform="matrix(0.05,0,0,0.05,15.949999999999998,0)" xlink:href="#bf"/><use transform="matrix(0.05,0,0,0.05,25.950000000000003,0)" xlink:href="#bv"/><use transform="matrix(0.05,0,0,0.05,34.95,0)" xlink:href="#bh"/><use transform="matrix(0.05,0,0,0.05,44.95,0)" xlink:href="#bs"/><use transform="matrix(0.05,0,0,0.05,50.900000000000006,0)" xlink:href="#bd"/><use transform="matrix(0.05,0,0,0.05,60.900000000000006,0)" xlink:href="#bz"/><use transform="matrix(0.05,0,0,0.05,73.85000000000001,0)" xlink:href="#ba"/><use transform="matrix(0.05,0,0,0.05,82.85000000000001,0)" xlink:href="#bh"/><use transform="matrix(0.05,0,0,0.05,92.85000000000001,0)" xlink:href="#bs"/><use transform="matrix(0.05,0,0,0.05,98.80000000000001,0)" xlink:href="#bl"/><use transform="matrix(0.05,0,0,0.05,108.80000000000001,0)" xlink:href="#bf"/><use transform="matrix(0.05,0,0,0.05,118.80000000000001,0)" xlink:href="#bg"/><use transform="matrix(0.05,0,0,0.05,133.75,0)" xlink:href="#bh"/></g><g id="L"><use transform="matrix(0.05,0,0,0.05,0,0)" xlink:href="#bb"/><use transform="matrix(0.05,0,0,0.05,12,0)" xlink:href="#bj"/><use transform="matrix(0.05,0,0,0.05,15.949999999999998,0)" xlink:href="#bf"/><use transform="matrix(0.05,0,0,0.05,25.950000000000003,0)" xlink:href="#bv"/><use transform="matrix(0.05,0,0,0.05,34.95,0)" xlink:href="#bh"/><use transform="matrix(0.05,0,0,0.05,44.95,0)" xlink:href="#bs"/><use transform="matrix(0.05,0,0,0.05,50.900000000000006,0)" xlink:href="#bd"/><use transform="matrix(0.05,0,0,0.05,60.900000000000006,0)" xlink:href="#bm"/><use transform="matrix(0.05,0,0,0.05,73.85000000000001,0)" xlink:href="#aY"/><use transform="matrix(0.05,0,0,0.05,83.85000000000001,0)" xlink:href="#bj"/><use transform="matrix(0.05,0,0,0.05,87.80000000000001,0)" xlink:href="#bh"/></g><path fill="#333" d="M240 0l2-218c-23 76-54 145-80 218h-23L58-218 59 0H30v-248h44l77 211c21-75 51-140 76-211h43V0h-30" id="bQ"/><g id="M"><use transform="matrix(0.05,0,0,0.05,0,0)" xlink:href="#bQ"/><use transform="matrix(0.05,0,0,0.05,14.950000000000001,0)" xlink:href="#bh"/><use transform="matrix(0.05,0,0,0.05,24.950000000000003,0)" xlink:href="#bs"/><use transform="matrix(0.05,0,0,0.05,30.900000000000002,0)" xlink:href="#bp"/><use transform="matrix(0.05,0,0,0.05,39.900000000000006,0)" xlink:href="#by"/><use transform="matrix(0.05,0,0,0.05,49.900000000000006,0)" xlink:href="#bd"/><use transform="matrix(0.05,0,0,0.05,59.900000000000006,0)" xlink:href="#bA"/><use transform="matrix(0.05,0,0,0.05,64.9,0)" xlink:href="#bB"/></g><g id="N"><use transform="matrix(0.05,0,0,0.05,0,0)" xlink:href="#bP"/><use transform="matrix(0.05,0,0,0.05,10,0)" xlink:href="#aY"/><use transform="matrix(0.05,0,0,0.05,20,0)" xlink:href="#bp"/><use transform="matrix(0.05,0,0,0.05,29,0)" xlink:href="#bf"/><use transform="matrix(0.05,0,0,0.05,39,0)" xlink:href="#bn"/><use transform="matrix(0.05,0,0,0.05,44,0)" xlink:href="#bo"/><use transform="matrix(0.05,0,0,0.05,47.95,0)" xlink:href="#aY"/><use transform="matrix(0.05,0,0,0.05,57.95,0)" xlink:href="#bl"/></g><g id="O"><use transform="matrix(0.05,0,0,0.05,0,0)" xlink:href="#bP"/><use transform="matrix(0.05,0,0,0.05,10,0)" xlink:href="#aY"/><use transform="matrix(0.05,0,0,0.05,20,0)" xlink:href="#bp"/><use transform="matrix(0.05,0,0,0.05,29,0)" xlink:href="#bf"/><use transform="matrix(0.05,0,0,0.05,39,0)" xlink:href="#bn"/><use transform="matrix(0.05,0,0,0.05,44,0)" xlink:href="#bo"/><use transform="matrix(0.05,0,0,0.05,47.95,0)" xlink:href="#aY"/><use transform="matrix(0.05,0,0,0.05,57.95,0)" xlink:href="#bl"/><use transform="matrix(0.05,0,0,0.05,67.95,0)" xlink:href="#bd"/><use transform="matrix(0.05,0,0,0.05,77.95,0)" xlink:href="#bA"/><use transform="matrix(0.05,0,0,0.05,82.95,0)" xlink:href="#bB"/></g><g id="P"><use transform="matrix(0.05,0,0,0.05,0,0)" xlink:href="#bP"/><use transform="matrix(0.05,0,0,0.05,10,0)" xlink:href="#aY"/><use transform="matrix(0.05,0,0,0.05,20,0)" xlink:href="#bp"/><use transform="matrix(0.05,0,0,0.05,29,0)" xlink:href="#bf"/><use transform="matrix(0.05,0,0,0.05,39,0)" xlink:href="#bn"/><use transform="matrix(0.05,0,0,0.05,44,0)" xlink:href="#bo"/><use transform="matrix(0.05,0,0,0.05,47.95,0)" xlink:href="#aY"/><use transform="matrix(0.05,0,0,0.05,57.95,0)" xlink:href="#bl"/><use transform="matrix(0.05,0,0,0.05,67.95,0)" xlink:href="#bd"/><use transform="matrix(0.05,0,0,0.05,77.95,0)" xlink:href="#bw"/><use transform="matrix(0.05,0,0,0.05,89.95,0)" xlink:href="#bn"/><use transform="matrix(0.05,0,0,0.05,94.95,0)" xlink:href="#bf"/><use transform="matrix(0.05,0,0,0.05,104.95,0)" xlink:href="#bn"/><use transform="matrix(0.05,0,0,0.05,109.95,0)" xlink:href="#bh"/></g><g id="Q"><use transform="matrix(0.05,0,0,0.05,0,0)" xlink:href="#bP"/><use transform="matrix(0.05,0,0,0.05,10,0)" xlink:href="#aY"/><use transform="matrix(0.05,0,0,0.05,20,0)" xlink:href="#bp"/><use transform="matrix(0.05,0,0,0.05,29,0)" xlink:href="#bf"/><use transform="matrix(0.05,0,0,0.05,39,0)" xlink:href="#bn"/><use transform="matrix(0.05,0,0,0.05,44,0)" xlink:href="#bo"/><use transform="matrix(0.05,0,0,0.05,47.95,0)" xlink:href="#aY"/><use transform="matrix(0.05,0,0,0.05,57.95,0)" xlink:href="#bl"/><use transform="matrix(0.05,0,0,0.05,67.95,0)" xlink:href="#bd"/><use transform="matrix(0.05,0,0,0.05,77.95,0)" xlink:href="#bi"/><use transform="matrix(0.05,0,0,0.05,90.9,0)" xlink:href="#bo"/><use transform="matrix(0.05,0,0,0.05,94.85000000000001,0)" xlink:href="#bn"/><use transform="matrix(0.05,0,0,0.05,99.85000000000001,0)" xlink:href="#bv"/></g><g id="R"><use transform="matrix(0.05,0,0,0.05,0,0)" xlink:href="#bP"/><use transform="matrix(0.05,0,0,0.05,10,0)" xlink:href="#aY"/><use transform="matrix(0.05,0,0,0.05,20,0)" xlink:href="#bp"/><use transform="matrix(0.05,0,0,0.05,29,0)" xlink:href="#bf"/><use transform="matrix(0.05,0,0,0.05,39,0)" xlink:href="#bn"/><use transform="matrix(0.05,0,0,0.05,44,0)" xlink:href="#bo"/><use transform="matrix(0.05,0,0,0.05,47.95,0)" xlink:href="#aY"/><use transform="matrix(0.05,0,0,0.05,57.95,0)" xlink:href="#bl"/><use transform="matrix(0.05,0,0,0.05,67.95,0)" xlink:href="#bd"/><use transform="matrix(0.05,0,0,0.05,77.95,0)" xlink:href="#bw"/><use transform="matrix(0.05,0,0,0.05,89.95,0)" xlink:href="#bn"/><use transform="matrix(0.05,0,0,0.05,94.95,0)" xlink:href="#bs"/><use transform="matrix(0.05,0,0,0.05,100.9,0)" xlink:href="#bh"/><use transform="matrix(0.05,0,0,0.05,110.9,0)" xlink:href="#bh"/><use transform="matrix(0.05,0,0,0.05,120.9,0)" xlink:href="#bn"/></g><path fill="#333" d="M30 0v-248h187v28H63v79h144v27H63v87h162V0H30" id="bR"/><path fill="#333" d="M115-194c55 1 70 41 70 98S169 2 115 4C84 4 66-9 55-30l1 105H24l-1-265h31l2 30c10-21 28-34 59-34zm-8 174c40 0 45-34 45-75s-6-73-45-74c-42 0-51 32-51 76 0 43 10 73 51 73" id="bS"/><g id="S"><use transform="matrix(0.05,0,0,0.05,0,0)" xlink:href="#bR"/><use transform="matrix(0.05,0,0,0.05,12,0)" xlink:href="#bg"/><use transform="matrix(0.05,0,0,0.05,26.950000000000003,0)" xlink:href="#bS"/><use transform="matrix(0.05,0,0,0.05,36.95,0)" xlink:href="#bj"/><use transform="matrix(0.05,0,0,0.05,40.900000000000006,0)" xlink:href="#aY"/><use transform="matrix(0.05,0,0,0.05,50.900000000000006,0)" xlink:href="#bv"/><use transform="matrix(0.05,0,0,0.05,59.900000000000006,0)" xlink:href="#bh"/><use transform="matrix(0.05,0,0,0.05,69.9,0)" xlink:href="#bh"/><use transform="matrix(0.05,0,0,0.05,79.9,0)" xlink:href="#ba"/></g><g id="T"><use transform="matrix(0.05,0,0,0.05,0,0)" xlink:href="#bR"/><use transform="matrix(0.05,0,0,0.05,12,0)" xlink:href="#bg"/><use transform="matrix(0.05,0,0,0.05,26.950000000000003,0)" xlink:href="#bS"/><use transform="matrix(0.05,0,0,0.05,36.95,0)" xlink:href="#bd"/><use transform="matrix(0.05,0,0,0.05,46.95,0)" xlink:href="#bA"/><use transform="matrix(0.05,0,0,0.05,51.95,0)" xlink:href="#bB"/></g><g id="U"><use transform="matrix(0.05,0,0,0.05,0,0)" xlink:href="#bR"/><use transform="matrix(0.05,0,0,0.05,12,0)" xlink:href="#bg"/><use transform="matrix(0.05,0,0,0.05,26.950000000000003,0)" xlink:href="#bS"/><use transform="matrix(0.05,0,0,0.05,36.95,0)" xlink:href="#bd"/><use transform="matrix(0.05,0,0,0.05,46.95,0)" xlink:href="#br"/><use transform="matrix(0.05,0,0,0.05,57.900000000000006,0)" xlink:href="#bo"/><use transform="matrix(0.05,0,0,0.05,61.85,0)" xlink:href="#bh"/><use transform="matrix(0.05,0,0,0.05,71.85000000000001,0)" xlink:href="#bj"/><use transform="matrix(0.05,0,0,0.05,75.80000000000001,0)" xlink:href="#aZ"/></g><g id="V"><use transform="matrix(0.05,0,0,0.05,0,0)" xlink:href="#bR"/><use transform="matrix(0.05,0,0,0.05,12,0)" xlink:href="#bg"/><use transform="matrix(0.05,0,0,0.05,26.950000000000003,0)" xlink:href="#bS"/><use transform="matrix(0.05,0,0,0.05,36.95,0)" xlink:href="#bd"/><use transform="matrix(0.05,0,0,0.05,46.95,0)" xlink:href="#br"/><use transform="matrix(0.05,0,0,0.05,57.900000000000006,0)" xlink:href="#be"/><use transform="matrix(0.05,0,0,0.05,70.85000000000001,0)" xlink:href="#bf"/><use transform="matrix(0.05,0,0,0.05,80.85000000000001,0)" xlink:href="#bg"/><use transform="matrix(0.05,0,0,0.05,95.80000000000001,0)" xlink:href="#bh"/></g><g id="W"><use transform="matrix(0.05,0,0,0.05,0,0)" xlink:href="#bR"/><use transform="matrix(0.05,0,0,0.05,12,0)" xlink:href="#bg"/><use transform="matrix(0.05,0,0,0.05,26.950000000000003,0)" xlink:href="#bS"/><use transform="matrix(0.05,0,0,0.05,36.95,0)" xlink:href="#bd"/><use transform="matrix(0.05,0,0,0.05,46.95,0)" xlink:href="#bP"/><use transform="matrix(0.05,0,0,0.05,56.95,0)" xlink:href="#be"/><use transform="matrix(0.05,0,0,0.05,69.9,0)" xlink:href="#bf"/><use transform="matrix(0.05,0,0,0.05,79.9,0)" xlink:href="#bg"/><use transform="matrix(0.05,0,0,0.05,94.85000000000001,0)" xlink:href="#bh"/></g><g id="X"><use transform="matrix(0.05,0,0,0.05,0,0)" xlink:href="#bm"/><use transform="matrix(0.05,0,0,0.05,12.950000000000001,0)" xlink:href="#bh"/><use transform="matrix(0.05,0,0,0.05,22.950000000000003,0)" xlink:href="#bp"/><use transform="matrix(0.05,0,0,0.05,31.950000000000003,0)" xlink:href="#aY"/><use transform="matrix(0.05,0,0,0.05,41.95,0)" xlink:href="#bs"/><use transform="matrix(0.05,0,0,0.05,47.900000000000006,0)" xlink:href="#aZ"/><use transform="matrix(0.05,0,0,0.05,57.900000000000006,0)" xlink:href="#ba"/></g><g id="Y"><use transform="matrix(0.05,0,0,0.05,0,0)" xlink:href="#bm"/><use transform="matrix(0.05,0,0,0.05,12.950000000000001,0)" xlink:href="#bh"/><use transform="matrix(0.05,0,0,0.05,22.950000000000003,0)" xlink:href="#bp"/><use transform="matrix(0.05,0,0,0.05,31.950000000000003,0)" xlink:href="#aY"/><use transform="matrix(0.05,0,0,0.05,41.95,0)" xlink:href="#bs"/><use transform="matrix(0.05,0,0,0.05,47.900000000000006,0)" xlink:href="#aZ"/><use transform="matrix(0.05,0,0,0.05,57.900000000000006,0)" xlink:href="#bd"/><use transform="matrix(0.05,0,0,0.05,67.9,0)" xlink:href="#bA"/><use transform="matrix(0.05,0,0,0.05,72.9,0)" xlink:href="#bB"/></g><path fill="#333" d="M266 0h-40l-56-210L115 0H75L2-248h35L96-30l15-64 43-154h32l59 218 59-218h35" id="bT"/><g id="Z"><use transform="matrix(0.05,0,0,0.05,0,0)" xlink:href="#bT"/><use transform="matrix(0.05,0,0,0.05,16.95,0)" xlink:href="#bo"/><use transform="matrix(0.05,0,0,0.05,20.9,0)" xlink:href="#bl"/><use transform="matrix(0.05,0,0,0.05,30.899999999999995,0)" xlink:href="#ba"/></g><g id="aa"><use transform="matrix(0.05,0,0,0.05,0,0)" xlink:href="#bP"/><use transform="matrix(0.05,0,0,0.05,10,0)" xlink:href="#aY"/><use transform="matrix(0.05,0,0,0.05,20,0)" xlink:href="#ba"/><use transform="matrix(0.05,0,0,0.05,29,0)" xlink:href="#ba"/><use transform="matrix(0.05,0,0,0.05,38,0)" xlink:href="#bh"/><use transform="matrix(0.05,0,0,0.05,48,0)" xlink:href="#ba"/></g><g id="ab"><use transform="matrix(0.05,0,0,0.05,0,0)" xlink:href="#bx"/><use transform="matrix(0.05,0,0,0.05,10.3,0)" xlink:href="#bo"/><use transform="matrix(0.05,0,0,0.05,14.25,0)" xlink:href="#bh"/><use transform="matrix(0.05,0,0,0.05,24.25,0)" xlink:href="#ba"/></g><g id="ac"><use transform="matrix(0.05,0,0,0.05,0,0)" xlink:href="#bQ"/><use transform="matrix(0.05,0,0,0.05,14.950000000000001,0)" xlink:href="#bh"/><use transform="matrix(0.05,0,0,0.05,24.950000000000003,0)" xlink:href="#bs"/><use transform="matrix(0.05,0,0,0.05,30.900000000000002,0)" xlink:href="#bp"/><use transform="matrix(0.05,0,0,0.05,39.900000000000006,0)" xlink:href="#by"/><use transform="matrix(0.05,0,0,0.05,49.900000000000006,0)" xlink:href="#bf"/><use transform="matrix(0.05,0,0,0.05,59.900000000000006,0)" xlink:href="#bl"/><use transform="matrix(0.05,0,0,0.05,69.9,0)" xlink:href="#aZ"/><use transform="matrix(0.05,0,0,0.05,79.9,0)" xlink:href="#bo"/><use transform="matrix(0.05,0,0,0.05,83.85000000000001,0)" xlink:href="#ba"/><use transform="matrix(0.05,0,0,0.05,92.85000000000001,0)" xlink:href="#bh"/></g><g id="ad"><use transform="matrix(0.05,0,0,0.05,0,0)" xlink:href="#bQ"/><use transform="matrix(0.05,0,0,0.05,14.950000000000001,0)" xlink:href="#bh"/><use transform="matrix(0.05,0,0,0.05,24.950000000000003,0)" xlink:href="#bs"/><use transform="matrix(0.05,0,0,0.05,30.900000000000002,0)" xlink:href="#bp"/><use transform="matrix(0.05,0,0,0.05,39.900000000000006,0)" xlink:href="#by"/><use transform="matrix(0.05,0,0,0.05,49.900000000000006,0)" xlink:href="#bd"/><use transform="matrix(0.05,0,0,0.05,59.900000000000006,0)" xlink:href="#bt"/><use transform="matrix(0.05,0,0,0.05,71.9,0)" xlink:href="#bS"/><use transform="matrix(0.05,0,0,0.05,81.9,0)" xlink:href="#bS"/><use transform="matrix(0.05,0,0,0.05,91.9,0)" xlink:href="#bf"/><use transform="matrix(0.05,0,0,0.05,101.9,0)" xlink:href="#bs"/><use transform="matrix(0.05,0,0,0.05,107.85000000000001,0)" xlink:href="#bs"/><use transform="matrix(0.05,0,0,0.05,113.80000000000001,0)" xlink:href="#bh"/><use transform="matrix(0.05,0,0,0.05,123.80000000000001,0)" xlink:href="#bj"/><use transform="matrix(0.05,0,0,0.05,127.75,0)" xlink:href="#bj"/></g><g id="ae"><use transform="matrix(0.05,0,0,0.05,0,0)" xlink:href="#bQ"/><use transform="matrix(0.05,0,0,0.05,14.950000000000001,0)" xlink:href="#bh"/><use transform="matrix(0.05,0,0,0.05,24.950000000000003,0)" xlink:href="#bs"/><use transform="matrix(0.05,0,0,0.05,30.900000000000002,0)" xlink:href="#bp"/><use transform="matrix(0.05,0,0,0.05,39.900000000000006,0)" xlink:href="#by"/><use transform="matrix(0.05,0,0,0.05,49.900000000000006,0)" xlink:href="#bd"/><use transform="matrix(0.05,0,0,0.05,59.900000000000006,0)" xlink:href="#bi"/><use transform="matrix(0.05,0,0,0.05,72.85000000000001,0)" xlink:href="#aY"/><use transform="matrix(0.05,0,0,0.05,82.85000000000001,0)" xlink:href="#ba"/><use transform="matrix(0.05,0,0,0.05,91.85000000000001,0)" xlink:href="#bn"/></g><g id="af"><use transform="matrix(0.05,0,0,0.05,0,0)" xlink:href="#bx"/><use transform="matrix(0.05,0,0,0.05,8.950000000000001,0)" xlink:href="#bh"/><use transform="matrix(0.05,0,0,0.05,18.950000000000003,0)" xlink:href="#bf"/><use transform="matrix(0.05,0,0,0.05,28.950000000000003,0)" xlink:href="#bg"/><use transform="matrix(0.05,0,0,0.05,43.900000000000006,0)" xlink:href="#bd"/><use transform="matrix(0.05,0,0,0.05,53.900000000000006,0)" xlink:href="#bQ"/><use transform="matrix(0.05,0,0,0.05,68.85000000000001,0)" xlink:href="#bh"/><use transform="matrix(0.05,0,0,0.05,78.85000000000001,0)" xlink:href="#bs"/><use transform="matrix(0.05,0,0,0.05,84.80000000000001,0)" xlink:href="#bp"/><use transform="matrix(0.05,0,0,0.05,93.80000000000001,0)" xlink:href="#by"/><use transform="matrix(0.05,0,0,0.05,103.80000000000001,0)" xlink:href="#bd"/><use transform="matrix(0.05,0,0,0.05,113.80000000000001,0)" xlink:href="#bA"/><use transform="matrix(0.05,0,0,0.05,118.80000000000001,0)" xlink:href="#bB"/></g><g id="ag"><use transform="matrix(0.05,0,0,0.05,0,0)" xlink:href="#bb"/><use transform="matrix(0.05,0,0,0.05,12,0)" xlink:href="#bj"/><use transform="matrix(0.05,0,0,0.05,15.949999999999998,0)" xlink:href="#bf"/><use transform="matrix(0.05,0,0,0.05,25.950000000000003,0)" xlink:href="#bv"/><use transform="matrix(0.05,0,0,0.05,34.95,0)" xlink:href="#bh"/><use transform="matrix(0.05,0,0,0.05,44.95,0)" xlink:href="#bs"/><use transform="matrix(0.05,0,0,0.05,50.900000000000006,0)" xlink:href="#bd"/><use transform="matrix(0.05,0,0,0.05,60.900000000000006,0)" xlink:href="#bQ"/><use transform="matrix(0.05,0,0,0.05,75.85000000000001,0)" xlink:href="#bh"/><use transform="matrix(0.05,0,0,0.05,85.85000000000001,0)" xlink:href="#bs"/><use transform="matrix(0.05,0,0,0.05,91.80000000000001,0)" xlink:href="#bp"/><use transform="matrix(0.05,0,0,0.05,100.80000000000001,0)" xlink:href="#by"/><use transform="matrix(0.05,0,0,0.05,110.80000000000001,0)" xlink:href="#bd"/><use transform="matrix(0.05,0,0,0.05,120.80000000000001,0)" xlink:href="#bA"/><use transform="matrix(0.05,0,0,0.05,125.80000000000001,0)" xlink:href="#bB"/></g><g id="ah"><use transform="matrix(0.05,0,0,0.05,0,0)" xlink:href="#bx"/><use transform="matrix(0.05,0,0,0.05,9.950000000000001,0)" xlink:href="#bN"/><use transform="matrix(0.05,0,0,0.05,22.900000000000002,0)" xlink:href="#bo"/><use transform="matrix(0.05,0,0,0.05,26.85,0)" xlink:href="#bn"/><use transform="matrix(0.05,0,0,0.05,31.85,0)" xlink:href="#bp"/><use transform="matrix(0.05,0,0,0.05,40.85,0)" xlink:href="#by"/><use transform="matrix(0.05,0,0,0.05,50.85,0)" xlink:href="#bd"/><use transform="matrix(0.05,0,0,0.05,60.85,0)" xlink:href="#bx"/><use transform="matrix(0.05,0,0,0.05,69.8,0)" xlink:href="#bh"/><use transform="matrix(0.05,0,0,0.05,79.8,0)" xlink:href="#bf"/><use transform="matrix(0.05,0,0,0.05,89.8,0)" xlink:href="#bg"/></g><g id="ai"><use transform="matrix(0.05,0,0,0.05,0,0)" xlink:href="#bx"/><use transform="matrix(0.05,0,0,0.05,9.950000000000001,0)" xlink:href="#bN"/><use transform="matrix(0.05,0,0,0.05,22.900000000000002,0)" xlink:href="#bo"/><use transform="matrix(0.05,0,0,0.05,26.85,0)" xlink:href="#bn"/><use transform="matrix(0.05,0,0,0.05,31.85,0)" xlink:href="#bp"/><use transform="matrix(0.05,0,0,0.05,40.85,0)" xlink:href="#by"/><use transform="matrix(0.05,0,0,0.05,50.85,0)" xlink:href="#bd"/><use transform="matrix(0.05,0,0,0.05,60.85,0)" xlink:href="#bR"/><use transform="matrix(0.05,0,0,0.05,72.85,0)" xlink:href="#bg"/><use transform="matrix(0.05,0,0,0.05,87.8,0)" xlink:href="#bS"/><use transform="matrix(0.05,0,0,0.05,97.8,0)" xlink:href="#bd"/><use transform="matrix(0.05,0,0,0.05,107.80000000000001,0)" xlink:href="#bA"/><use transform="matrix(0.05,0,0,0.05,112.80000000000001,0)" xlink:href="#bB"/></g><g id="aj"><use transform="matrix(0.05,0,0,0.05,0,0)" xlink:href="#bi"/><use transform="matrix(0.05,0,0,0.05,12.950000000000001,0)" xlink:href="#bf"/><use transform="matrix(0.05,0,0,0.05,22.950000000000003,0)" xlink:href="#ba"/><use transform="matrix(0.05,0,0,0.05,31.950000000000003,0)" xlink:href="#bn"/><use transform="matrix(0.05,0,0,0.05,36.95,0)" xlink:href="#bh"/><use transform="matrix(0.05,0,0,0.05,46.95,0)" xlink:href="#bs"/></g><g id="ak"><use transform="matrix(0.05,0,0,0.05,0,0)" xlink:href="#bb"/><use transform="matrix(0.05,0,0,0.05,12,0)" xlink:href="#bs"/><use transform="matrix(0.05,0,0,0.05,17.95,0)" xlink:href="#aY"/><use transform="matrix(0.05,0,0,0.05,27.950000000000003,0)" xlink:href="#aZ"/><use transform="matrix(0.05,0,0,0.05,37.95,0)" xlink:href="#bO"/><use transform="matrix(0.05,0,0,0.05,47.95,0)" xlink:href="#bp"/><use transform="matrix(0.05,0,0,0.05,56.95,0)" xlink:href="#bh"/><use transform="matrix(0.05,0,0,0.05,66.95,0)" xlink:href="#bs"/></g><g id="al"><use transform="matrix(0.05,0,0,0.05,0,0)" xlink:href="#bx"/><use transform="matrix(0.05,0,0,0.05,9.950000000000001,0)" xlink:href="#bN"/><use transform="matrix(0.05,0,0,0.05,22.900000000000002,0)" xlink:href="#bo"/><use transform="matrix(0.05,0,0,0.05,26.85,0)" xlink:href="#bn"/><use transform="matrix(0.05,0,0,0.05,31.85,0)" xlink:href="#bp"/><use transform="matrix(0.05,0,0,0.05,40.85,0)" xlink:href="#by"/><use transform="matrix(0.05,0,0,0.05,50.85,0)" xlink:href="#bd"/><use transform="matrix(0.05,0,0,0.05,60.85,0)" xlink:href="#bi"/><use transform="matrix(0.05,0,0,0.05,73.8,0)" xlink:href="#by"/><use transform="matrix(0.05,0,0,0.05,83.8,0)" xlink:href="#bf"/><use transform="matrix(0.05,0,0,0.05,93.8,0)" xlink:href="#bl"/><use transform="matrix(0.05,0,0,0.05,103.80000000000001,0)" xlink:href="#bl"/><use transform="matrix(0.05,0,0,0.05,113.80000000000001,0)" xlink:href="#bh"/><use transform="matrix(0.05,0,0,0.05,123.80000000000001,0)" xlink:href="#bj"/></g><g id="am"><use transform="matrix(0.05,0,0,0.05,0,0)" xlink:href="#aX"/><use transform="matrix(0.05,0,0,0.05,14,0)" xlink:href="#aY"/><use transform="matrix(0.05,0,0,0.05,24,0)" xlink:href="#aZ"/><use transform="matrix(0.05,0,0,0.05,34,0)" xlink:href="#ba"/><use transform="matrix(0.05,0,0,0.05,43,0)" xlink:href="#bd"/><use transform="matrix(0.05,0,0,0.05,53,0)" xlink:href="#bw"/><use transform="matrix(0.05,0,0,0.05,65,0)" xlink:href="#bh"/><use transform="matrix(0.05,0,0,0.05,75,0)" xlink:href="#bj"/><use transform="matrix(0.05,0,0,0.05,78.95,0)" xlink:href="#bh"/><use transform="matrix(0.05,0,0,0.05,88.95,0)" xlink:href="#bp"/><use transform="matrix(0.05,0,0,0.05,97.95,0)" xlink:href="#bn"/><use transform="matrix(0.05,0,0,0.05,102.95,0)" xlink:href="#bh"/><use transform="matrix(0.05,0,0,0.05,112.95,0)" xlink:href="#aZ"/></g><g id="an"><use transform="matrix(0.05,0,0,0.05,0,0)" xlink:href="#aX"/><use transform="matrix(0.05,0,0,0.05,14,0)" xlink:href="#aY"/><use transform="matrix(0.05,0,0,0.05,24,0)" xlink:href="#aZ"/><use transform="matrix(0.05,0,0,0.05,34,0)" xlink:href="#bd"/><use transform="matrix(0.05,0,0,0.05,44,0)" xlink:href="#bA"/><use transform="matrix(0.05,0,0,0.05,49,0)" xlink:href="#bB"/></g><g id="ao"><use transform="matrix(0.05,0,0,0.05,0,0)" xlink:href="#bx"/><use transform="matrix(0.05,0,0,0.05,8.950000000000001,0)" xlink:href="#bh"/><use transform="matrix(0.05,0,0,0.05,18.950000000000003,0)" xlink:href="#bf"/><use transform="matrix(0.05,0,0,0.05,28.950000000000003,0)" xlink:href="#bg"/><use transform="matrix(0.05,0,0,0.05,43.900000000000006,0)" xlink:href="#bd"/><use transform="matrix(0.05,0,0,0.05,53.900000000000006,0)" xlink:href="#bC"/><use transform="matrix(0.05,0,0,0.05,67.9,0)" xlink:href="#bl"/><use transform="matrix(0.05,0,0,0.05,77.9,0)" xlink:href="#bh"/></g><g id="ap"><use transform="matrix(0.05,0,0,0.05,0,0)" xlink:href="#bx"/><use transform="matrix(0.05,0,0,0.05,8.950000000000001,0)" xlink:href="#bh"/><use transform="matrix(0.05,0,0,0.05,18.950000000000003,0)" xlink:href="#bf"/><use transform="matrix(0.05,0,0,0.05,28.950000000000003,0)" xlink:href="#bg"/><use transform="matrix(0.05,0,0,0.05,43.900000000000006,0)" xlink:href="#bd"/><use transform="matrix(0.05,0,0,0.05,53.900000000000006,0)" xlink:href="#bC"/><use transform="matrix(0.05,0,0,0.05,67.9,0)" xlink:href="#bl"/><use transform="matrix(0.05,0,0,0.05,77.9,0)" xlink:href="#bh"/><use transform="matrix(0.05,0,0,0.05,87.9,0)" xlink:href="#bd"/><use transform="matrix(0.05,0,0,0.05,97.9,0)" xlink:href="#bA"/><use transform="matrix(0.05,0,0,0.05,102.9,0)" xlink:href="#bB"/></g><g id="aq"><use transform="matrix(0.05,0,0,0.05,0,0)" xlink:href="#bx"/><use transform="matrix(0.05,0,0,0.05,8.950000000000001,0)" xlink:href="#bf"/><use transform="matrix(0.05,0,0,0.05,18.950000000000003,0)" xlink:href="#bg"/><use transform="matrix(0.05,0,0,0.05,33.900000000000006,0)" xlink:href="#bd"/><use transform="matrix(0.05,0,0,0.05,43.900000000000006,0)" xlink:href="#bC"/><use transform="matrix(0.05,0,0,0.05,57.900000000000006,0)" xlink:href="#bl"/><use transform="matrix(0.05,0,0,0.05,67.9,0)" xlink:href="#bh"/><use transform="matrix(0.05,0,0,0.05,77.9,0)" xlink:href="#bd"/><use transform="matrix(0.05,0,0,0.05,87.9,0)" xlink:href="#bw"/><use transform="matrix(0.05,0,0,0.05,99.9,0)" xlink:href="#bh"/><use transform="matrix(0.05,0,0,0.05,109.9,0)" xlink:href="#bj"/><use transform="matrix(0.05,0,0,0.05,113.85000000000001,0)" xlink:href="#bd"/><use transform="matrix(0.05,0,0,0.05,123.85000000000001,0)" xlink:href="#aX"/><use transform="matrix(0.05,0,0,0.05,137.85000000000002,0)" xlink:href="#aY"/><use transform="matrix(0.05,0,0,0.05,147.85000000000002,0)" xlink:href="#aZ"/><use transform="matrix(0.05,0,0,0.05,157.85000000000002,0)" xlink:href="#ba"/></g><g id="ar"><use transform="matrix(0.05,0,0,0.05,0,0)" xlink:href="#bx"/><use transform="matrix(0.05,0,0,0.05,8.950000000000001,0)" xlink:href="#bh"/><use transform="matrix(0.05,0,0,0.05,18.950000000000003,0)" xlink:href="#bf"/><use transform="matrix(0.05,0,0,0.05,28.950000000000003,0)" xlink:href="#bg"/><use transform="matrix(0.05,0,0,0.05,43.900000000000006,0)" xlink:href="#bd"/><use transform="matrix(0.05,0,0,0.05,53.900000000000006,0)" xlink:href="#bx"/><use transform="matrix(0.05,0,0,0.05,63.85,0)" xlink:href="#bN"/><use transform="matrix(0.05,0,0,0.05,76.80000000000001,0)" xlink:href="#aY"/></g><g id="as"><use transform="matrix(0.05,0,0,0.05,0,0)" xlink:href="#bx"/><use transform="matrix(0.05,0,0,0.05,8.950000000000001,0)" xlink:href="#bh"/><use transform="matrix(0.05,0,0,0.05,18.950000000000003,0)" xlink:href="#bf"/><use transform="matrix(0.05,0,0,0.05,28.950000000000003,0)" xlink:href="#bg"/><use transform="matrix(0.05,0,0,0.05,43.900000000000006,0)" xlink:href="#bd"/><use transform="matrix(0.05,0,0,0.05,53.900000000000006,0)" xlink:href="#bx"/><use transform="matrix(0.05,0,0,0.05,63.85,0)" xlink:href="#bN"/><use transform="matrix(0.05,0,0,0.05,76.80000000000001,0)" xlink:href="#aY"/><use transform="matrix(0.05,0,0,0.05,86.80000000000001,0)" xlink:href="#bd"/><use transform="matrix(0.05,0,0,0.05,96.80000000000001,0)" xlink:href="#bA"/><use transform="matrix(0.05,0,0,0.05,101.80000000000001,0)" xlink:href="#bB"/></g><g id="at"><use transform="matrix(0.05,0,0,0.05,0,0)" xlink:href="#bx"/><use transform="matrix(0.05,0,0,0.05,8.950000000000001,0)" xlink:href="#bf"/><use transform="matrix(0.05,0,0,0.05,18.950000000000003,0)" xlink:href="#bg"/><use transform="matrix(0.05,0,0,0.05,33.900000000000006,0)" xlink:href="#bd"/><use transform="matrix(0.05,0,0,0.05,43.900000000000006,0)" xlink:href="#bx"/><use transform="matrix(0.05,0,0,0.05,53.85,0)" xlink:href="#bN"/><use transform="matrix(0.05,0,0,0.05,66.80000000000001,0)" xlink:href="#aY"/><use transform="matrix(0.05,0,0,0.05,76.80000000000001,0)" xlink:href="#bd"/><use transform="matrix(0.05,0,0,0.05,86.80000000000001,0)" xlink:href="#bw"/><use transform="matrix(0.05,0,0,0.05,98.80000000000001,0)" xlink:href="#bh"/><use transform="matrix(0.05,0,0,0.05,108.80000000000001,0)" xlink:href="#bj"/><use transform="matrix(0.05,0,0,0.05,112.75,0)" xlink:href="#bd"/><use transform="matrix(0.05,0,0,0.05,122.75,0)" xlink:href="#aX"/><use transform="matrix(0.05,0,0,0.05,136.75,0)" xlink:href="#aY"/><use transform="matrix(0.05,0,0,0.05,146.75,0)" xlink:href="#aZ"/><use transform="matrix(0.05,0,0,0.05,156.75,0)" xlink:href="#ba"/></g></defs></g></svg>